STARTFONT 2.1
COMMENT Font converted from OTF to BDF.
FONT -FreeType-creep-Medium-R-Normal--16-120-96-96-M-40-ISO10646-1
SIZE 12 96 96
FONTBOUNDINGBOX 7 12 -1 -3
STARTPROPERTIES 22
POINT_SIZE 120
PIXEL_SIZE 16
RESOLUTION_X 96
RESOLUTION_Y 96
FONT_ASCENT 9
FONT_DESCENT 2
AVERAGE_WIDTH 40
SPACING "M"
FOUNDRY "FreeType"
FAMILY_NAME "creep"
CHARSET_REGISTRY "ISO10646"
CHARSET_ENCODING "1"
WEIGHT_NAME "Medium"
SLANT "R"
SETWIDTH_NAME "Normal"
COPYRIGHT "Copyright romeovs 2013"
_TTF_PSNAME "creep"
_OTF_FONTFILE "creep2.ttf"
_GBDFED_INFO "Edited with gbdfed 1.6."
CAP_HEIGHT 7
DEFAULT_CHAR 0
FACE_NAME "small"
ENDPROPERTIES
CHARS 671
STARTCHAR char10254
ENCODING -1
SWIDTH 437 0
DWIDTH 7 0
BBX 3 5 0 0
BITMAP
20
00
80
00
80
ENDCHAR
STARTCHAR char32
ENCODING 32
SWIDTH 437 0
DWIDTH 7 0
BBX 0 0 0 0
BITMAP
ENDCHAR
STARTCHAR char33
ENCODING 33
SWIDTH 437 0
DWIDTH 7 0
BBX 1 7 2 0
BITMAP
80
80
80
80
80
00
80
ENDCHAR
STARTCHAR char34
ENCODING 34
SWIDTH 437 0
DWIDTH 7 0
BBX 3 3 1 4
BITMAP
A0
A0
A0
ENDCHAR
STARTCHAR char35
ENCODING 35
SWIDTH 437 0
DWIDTH 7 0
BBX 5 5 0 0
BITMAP
50
F8
50
F8
50
ENDCHAR
STARTCHAR char36
ENCODING 36
SWIDTH 437 0
DWIDTH 7 0
BBX 5 7 0 0
BITMAP
20
78
A0
70
28
F0
20
ENDCHAR
STARTCHAR char37
ENCODING 37
SWIDTH 437 0
DWIDTH 7 0
BBX 4 4 0 1
BITMAP
90
20
40
90
ENDCHAR
STARTCHAR char38
ENCODING 38
SWIDTH 437 0
DWIDTH 7 0
BBX 5 7 0 0
BITMAP
40
A0
A0
40
A8
90
78
ENDCHAR
STARTCHAR char39
ENCODING 39
SWIDTH 437 0
DWIDTH 7 0
BBX 1 3 2 4
BITMAP
80
80
80
ENDCHAR
STARTCHAR char40
ENCODING 40
SWIDTH 437 0
DWIDTH 7 0
BBX 3 9 0 -2
BITMAP
20
40
80
80
80
80
80
40
20
ENDCHAR
STARTCHAR char41
ENCODING 41
SWIDTH 437 0
DWIDTH 7 0
BBX 3 9 0 -2
BITMAP
80
40
20
20
20
20
20
40
80
ENDCHAR
STARTCHAR char42
ENCODING 42
SWIDTH 437 0
DWIDTH 7 0
BBX 3 3 0 1
BITMAP
A0
40
A0
ENDCHAR
STARTCHAR char43
ENCODING 43
SWIDTH 437 0
DWIDTH 7 0
BBX 5 5 0 0
BITMAP
20
20
F8
20
20
ENDCHAR
STARTCHAR char44
ENCODING 44
SWIDTH 437 0
DWIDTH 7 0
BBX 2 2 1 -1
BITMAP
40
80
ENDCHAR
STARTCHAR char45
ENCODING 45
SWIDTH 437 0
DWIDTH 7 0
BBX 4 1 0 2
BITMAP
F0
ENDCHAR
STARTCHAR char46
ENCODING 46
SWIDTH 437 0
DWIDTH 7 0
BBX 1 1 2 0
BITMAP
80
ENDCHAR
STARTCHAR char47
ENCODING 47
SWIDTH 437 0
DWIDTH 7 0
BBX 4 8 0 -1
BITMAP
10
10
20
20
40
40
80
80
ENDCHAR
STARTCHAR char48
ENCODING 48
SWIDTH 437 0
DWIDTH 7 0
BBX 4 7 0 0
BITMAP
60
90
90
B0
D0
90
60
ENDCHAR
STARTCHAR char49
ENCODING 49
SWIDTH 437 0
DWIDTH 7 0
BBX 2 7 1 0
BITMAP
40
C0
40
40
40
40
40
ENDCHAR
STARTCHAR char50
ENCODING 50
SWIDTH 437 0
DWIDTH 7 0
BBX 4 7 0 0
BITMAP
60
90
10
20
40
80
F0
ENDCHAR
STARTCHAR char51
ENCODING 51
SWIDTH 437 0
DWIDTH 7 0
BBX 4 7 0 0
BITMAP
F0
10
20
60
10
90
60
ENDCHAR
STARTCHAR char52
ENCODING 52
SWIDTH 437 0
DWIDTH 7 0
BBX 4 7 0 0
BITMAP
60
60
A0
A0
F0
20
20
ENDCHAR
STARTCHAR char53
ENCODING 53
SWIDTH 437 0
DWIDTH 7 0
BBX 4 7 0 0
BITMAP
F0
80
E0
90
10
90
60
ENDCHAR
STARTCHAR char54
ENCODING 54
SWIDTH 437 0
DWIDTH 7 0
BBX 4 7 0 0
BITMAP
60
90
80
E0
90
90
60
ENDCHAR
STARTCHAR char55
ENCODING 55
SWIDTH 437 0
DWIDTH 7 0
BBX 4 7 0 0
BITMAP
F0
10
10
20
20
40
40
ENDCHAR
STARTCHAR char56
ENCODING 56
SWIDTH 437 0
DWIDTH 7 0
BBX 4 7 0 0
BITMAP
60
90
90
60
90
90
60
ENDCHAR
STARTCHAR char57
ENCODING 57
SWIDTH 437 0
DWIDTH 7 0
BBX 4 7 0 0
BITMAP
60
90
90
70
10
90
60
ENDCHAR
STARTCHAR char58
ENCODING 58
SWIDTH 437 0
DWIDTH 7 0
BBX 1 3 1 1
BITMAP
80
00
80
ENDCHAR
STARTCHAR char59
ENCODING 59
SWIDTH 437 0
DWIDTH 7 0
BBX 2 4 0 0
BITMAP
40
00
40
80
ENDCHAR
STARTCHAR char60
ENCODING 60
SWIDTH 437 0
DWIDTH 7 0
BBX 3 5 0 0
BITMAP
20
40
80
40
20
ENDCHAR
STARTCHAR char61
ENCODING 61
SWIDTH 437 0
DWIDTH 7 0
BBX 4 3 0 1
BITMAP
F0
00
F0
ENDCHAR
STARTCHAR char62
ENCODING 62
SWIDTH 437 0
DWIDTH 7 0
BBX 3 5 0 0
BITMAP
80
40
20
40
80
ENDCHAR
STARTCHAR char63
ENCODING 63
SWIDTH 437 0
DWIDTH 7 0
BBX 4 7 0 0
BITMAP
E0
10
30
40
40
00
40
ENDCHAR
STARTCHAR char64
ENCODING 64
SWIDTH 437 0
DWIDTH 7 0
BBX 4 6 0 0
BITMAP
F0
90
B0
B0
80
F0
ENDCHAR
STARTCHAR char65
ENCODING 65
SWIDTH 437 0
DWIDTH 7 0
BBX 4 7 0 0
BITMAP
60
90
90
F0
90
90
90
ENDCHAR
STARTCHAR char66
ENCODING 66
SWIDTH 437 0
DWIDTH 7 0
BBX 4 7 0 0
BITMAP
C0
A0
A0
E0
90
90
F0
ENDCHAR
STARTCHAR char67
ENCODING 67
SWIDTH 437 0
DWIDTH 7 0
BBX 4 7 0 0
BITMAP
60
90
80
80
80
90
60
ENDCHAR
STARTCHAR char68
ENCODING 68
SWIDTH 437 0
DWIDTH 7 0
BBX 4 7 0 0
BITMAP
C0
A0
90
90
90
A0
C0
ENDCHAR
STARTCHAR char69
ENCODING 69
SWIDTH 437 0
DWIDTH 7 0
BBX 4 7 0 0
BITMAP
F0
80
80
C0
80
80
F0
ENDCHAR
STARTCHAR char70
ENCODING 70
SWIDTH 437 0
DWIDTH 7 0
BBX 4 7 0 0
BITMAP
F0
80
80
C0
80
80
80
ENDCHAR
STARTCHAR char71
ENCODING 71
SWIDTH 437 0
DWIDTH 7 0
BBX 4 7 0 0
BITMAP
60
90
80
80
B0
90
60
ENDCHAR
STARTCHAR char72
ENCODING 72
SWIDTH 437 0
DWIDTH 7 0
BBX 4 7 0 0
BITMAP
90
90
F0
90
90
90
90
ENDCHAR
STARTCHAR char73
ENCODING 73
SWIDTH 437 0
DWIDTH 7 0
BBX 3 7 0 0
BITMAP
E0
40
40
40
40
40
E0
ENDCHAR
STARTCHAR char74
ENCODING 74
SWIDTH 437 0
DWIDTH 7 0
BBX 4 7 0 0
BITMAP
70
10
10
10
10
90
70
ENDCHAR
STARTCHAR char75
ENCODING 75
SWIDTH 437 0
DWIDTH 7 0
BBX 4 7 0 0
BITMAP
90
A0
C0
A0
A0
90
90
ENDCHAR
STARTCHAR char76
ENCODING 76
SWIDTH 437 0
DWIDTH 7 0
BBX 4 7 0 0
BITMAP
80
80
80
80
80
80
F0
ENDCHAR
STARTCHAR char77
ENCODING 77
SWIDTH 437 0
DWIDTH 7 0
BBX 4 7 0 0
BITMAP
90
F0
F0
90
90
90
90
ENDCHAR
STARTCHAR char78
ENCODING 78
SWIDTH 437 0
DWIDTH 7 0
BBX 4 7 0 0
BITMAP
90
D0
D0
B0
B0
90
90
ENDCHAR
STARTCHAR char79
ENCODING 79
SWIDTH 437 0
DWIDTH 7 0
BBX 4 7 0 0
BITMAP
60
90
90
90
90
90
60
ENDCHAR
STARTCHAR char80
ENCODING 80
SWIDTH 437 0
DWIDTH 7 0
BBX 4 7 0 0
BITMAP
E0
90
90
E0
80
80
80
ENDCHAR
STARTCHAR char81
ENCODING 81
SWIDTH 437 0
DWIDTH 7 0
BBX 4 8 0 -1
BITMAP
60
90
90
90
90
B0
70
10
ENDCHAR
STARTCHAR char82
ENCODING 82
SWIDTH 437 0
DWIDTH 7 0
BBX 4 7 0 0
BITMAP
E0
90
90
E0
C0
A0
90
ENDCHAR
STARTCHAR char83
ENCODING 83
SWIDTH 437 0
DWIDTH 7 0
BBX 4 7 0 0
BITMAP
60
90
80
60
10
90
60
ENDCHAR
STARTCHAR char84
ENCODING 84
SWIDTH 437 0
DWIDTH 7 0
BBX 3 7 0 0
BITMAP
E0
40
40
40
40
40
40
ENDCHAR
STARTCHAR char85
ENCODING 85
SWIDTH 437 0
DWIDTH 7 0
BBX 4 7 0 0
BITMAP
90
90
90
90
90
90
70
ENDCHAR
STARTCHAR char86
ENCODING 86
SWIDTH 437 0
DWIDTH 7 0
BBX 4 7 0 0
BITMAP
90
90
90
90
90
90
60
ENDCHAR
STARTCHAR char87
ENCODING 87
SWIDTH 437 0
DWIDTH 7 0
BBX 4 7 0 0
BITMAP
90
90
90
90
F0
F0
90
ENDCHAR
STARTCHAR char88
ENCODING 88
SWIDTH 437 0
DWIDTH 7 0
BBX 4 7 0 0
BITMAP
90
90
60
90
90
90
90
ENDCHAR
STARTCHAR char89
ENCODING 89
SWIDTH 437 0
DWIDTH 7 0
BBX 4 7 0 0
BITMAP
90
90
90
70
10
90
70
ENDCHAR
STARTCHAR char90
ENCODING 90
SWIDTH 437 0
DWIDTH 7 0
BBX 4 7 0 0
BITMAP
F0
10
10
20
40
80
F0
ENDCHAR
STARTCHAR char91
ENCODING 91
SWIDTH 437 0
DWIDTH 7 0
BBX 2 9 1 -2
BITMAP
C0
80
80
80
80
80
80
80
C0
ENDCHAR
STARTCHAR char92
ENCODING 92
SWIDTH 437 0
DWIDTH 7 0
BBX 4 8 0 -1
BITMAP
80
80
40
40
20
20
10
10
ENDCHAR
STARTCHAR char93
ENCODING 93
SWIDTH 437 0
DWIDTH 7 0
BBX 2 9 1 -2
BITMAP
C0
40
40
40
40
40
40
40
C0
ENDCHAR
STARTCHAR char94
ENCODING 94
SWIDTH 437 0
DWIDTH 7 0
BBX 3 2 1 5
BITMAP
40
A0
ENDCHAR
STARTCHAR char95
ENCODING 95
SWIDTH 437 0
DWIDTH 7 0
BBX 4 1 0 0
BITMAP
F0
ENDCHAR
STARTCHAR char96
ENCODING 96
SWIDTH 437 0
DWIDTH 7 0
BBX 2 2 1 5
BITMAP
80
40
ENDCHAR
STARTCHAR char97
ENCODING 97
SWIDTH 437 0
DWIDTH 7 0
BBX 4 5 0 0
BITMAP
70
90
90
90
70
ENDCHAR
STARTCHAR char98
ENCODING 98
SWIDTH 437 0
DWIDTH 7 0
BBX 4 7 0 0
BITMAP
80
80
E0
90
90
90
E0
ENDCHAR
STARTCHAR char99
ENCODING 99
SWIDTH 437 0
DWIDTH 7 0
BBX 4 5 0 0
BITMAP
60
90
80
90
60
ENDCHAR
STARTCHAR char100
ENCODING 100
SWIDTH 437 0
DWIDTH 7 0
BBX 4 7 0 0
BITMAP
10
10
70
90
90
90
70
ENDCHAR
STARTCHAR char101
ENCODING 101
SWIDTH 437 0
DWIDTH 7 0
BBX 4 5 0 0
BITMAP
60
90
F0
80
70
ENDCHAR
STARTCHAR char102
ENCODING 102
SWIDTH 437 0
DWIDTH 7 0
BBX 4 9 0 -2
BITMAP
20
50
40
E0
40
40
40
40
80
ENDCHAR
STARTCHAR char103
ENCODING 103
SWIDTH 437 0
DWIDTH 7 0
BBX 4 7 0 -2
BITMAP
70
90
90
90
70
10
60
ENDCHAR
STARTCHAR char104
ENCODING 104
SWIDTH 437 0
DWIDTH 7 0
BBX 4 7 0 0
BITMAP
80
80
E0
90
90
90
90
ENDCHAR
STARTCHAR char105
ENCODING 105
SWIDTH 437 0
DWIDTH 7 0
BBX 3 7 0 0
BITMAP
40
00
C0
40
40
40
60
ENDCHAR
STARTCHAR char106
ENCODING 106
SWIDTH 437 0
DWIDTH 7 0
BBX 2 9 1 -2
BITMAP
40
00
C0
40
40
40
40
40
80
ENDCHAR
STARTCHAR char107
ENCODING 107
SWIDTH 437 0
DWIDTH 7 0
BBX 4 7 0 0
BITMAP
80
80
90
A0
C0
A0
90
ENDCHAR
STARTCHAR char108
ENCODING 108
SWIDTH 437 0
DWIDTH 7 0
BBX 2 7 1 0
BITMAP
80
80
80
80
80
80
40
ENDCHAR
STARTCHAR char109
ENCODING 109
SWIDTH 437 0
DWIDTH 7 0
BBX 4 5 0 0
BITMAP
90
F0
90
90
90
ENDCHAR
STARTCHAR char110
ENCODING 110
SWIDTH 437 0
DWIDTH 7 0
BBX 4 5 0 0
BITMAP
E0
90
90
90
90
ENDCHAR
STARTCHAR char111
ENCODING 111
SWIDTH 437 0
DWIDTH 7 0
BBX 4 5 0 0
BITMAP
60
90
90
90
60
ENDCHAR
STARTCHAR char112
ENCODING 112
SWIDTH 437 0
DWIDTH 7 0
BBX 4 7 0 -2
BITMAP
E0
90
90
90
E0
80
80
ENDCHAR
STARTCHAR char113
ENCODING 113
SWIDTH 437 0
DWIDTH 7 0
BBX 4 7 0 -2
BITMAP
70
90
90
90
70
10
10
ENDCHAR
STARTCHAR char114
ENCODING 114
SWIDTH 437 0
DWIDTH 7 0
BBX 4 5 0 0
BITMAP
E0
90
80
80
80
ENDCHAR
STARTCHAR char115
ENCODING 115
SWIDTH 437 0
DWIDTH 7 0
BBX 4 5 0 0
BITMAP
70
80
60
10
E0
ENDCHAR
STARTCHAR char116
ENCODING 116
SWIDTH 437 0
DWIDTH 7 0
BBX 3 7 0 0
BITMAP
40
40
E0
40
40
40
20
ENDCHAR
STARTCHAR char117
ENCODING 117
SWIDTH 437 0
DWIDTH 7 0
BBX 4 5 0 0
BITMAP
90
90
90
90
70
ENDCHAR
STARTCHAR char118
ENCODING 118
SWIDTH 437 0
DWIDTH 7 0
BBX 4 5 0 0
BITMAP
90
90
90
90
60
ENDCHAR
STARTCHAR char119
ENCODING 119
SWIDTH 437 0
DWIDTH 7 0
BBX 4 5 0 0
BITMAP
90
90
90
F0
90
ENDCHAR
STARTCHAR char120
ENCODING 120
SWIDTH 437 0
DWIDTH 7 0
BBX 4 5 0 0
BITMAP
90
90
60
90
90
ENDCHAR
STARTCHAR char121
ENCODING 121
SWIDTH 437 0
DWIDTH 7 0
BBX 4 7 0 -2
BITMAP
90
90
90
90
70
90
60
ENDCHAR
STARTCHAR char122
ENCODING 122
SWIDTH 437 0
DWIDTH 7 0
BBX 4 5 0 0
BITMAP
F0
20
40
80
F0
ENDCHAR
STARTCHAR char123
ENCODING 123
SWIDTH 437 0
DWIDTH 7 0
BBX 4 9 0 -2
BITMAP
30
40
40
40
80
40
40
40
30
ENDCHAR
STARTCHAR char124
ENCODING 124
SWIDTH 437 0
DWIDTH 7 0
BBX 1 7 2 0
BITMAP
80
80
80
80
80
80
80
ENDCHAR
STARTCHAR char125
ENCODING 125
SWIDTH 437 0
DWIDTH 7 0
BBX 4 9 0 -2
BITMAP
C0
20
20
20
10
20
20
20
C0
ENDCHAR
STARTCHAR char126
ENCODING 126
SWIDTH 437 0
DWIDTH 7 0
BBX 4 2 0 1
BITMAP
50
A0
ENDCHAR
STARTCHAR char161
ENCODING 161
SWIDTH 437 0
DWIDTH 7 0
BBX 1 7 2 0
BITMAP
80
00
80
80
80
80
80
ENDCHAR
STARTCHAR char162
ENCODING 162
SWIDTH 437 0
DWIDTH 7 0
BBX 4 7 0 -1
BITMAP
40
60
D0
C0
D0
60
40
ENDCHAR
STARTCHAR char163
ENCODING 163
SWIDTH 437 0
DWIDTH 7 0
BBX 4 7 0 0
BITMAP
60
90
80
C0
80
D0
B0
ENDCHAR
STARTCHAR char165
ENCODING 165
SWIDTH 437 0
DWIDTH 7 0
BBX 5 7 -1 0
BITMAP
50
50
F8
50
F8
20
20
ENDCHAR
STARTCHAR char166
ENCODING 166
SWIDTH 437 0
DWIDTH 7 0
BBX 1 7 2 0
BITMAP
80
80
80
00
80
80
80
ENDCHAR
STARTCHAR char167
ENCODING 167
SWIDTH 437 0
DWIDTH 7 0
BBX 4 7 0 0
BITMAP
60
90
E0
90
70
90
60
ENDCHAR
STARTCHAR char168
ENCODING 168
SWIDTH 437 0
DWIDTH 7 0
BBX 3 1 0 6
BITMAP
A0
ENDCHAR
STARTCHAR char169
ENCODING 169
SWIDTH 437 0
DWIDTH 7 0
BBX 6 7 -1 0
BITMAP
30
48
B4
A4
B4
48
30
ENDCHAR
STARTCHAR char171
ENCODING 171
SWIDTH 437 0
DWIDTH 7 0
BBX 4 4 0 1
BITMAP
50
A0
A0
50
ENDCHAR
STARTCHAR char172
ENCODING 172
SWIDTH 437 0
DWIDTH 7 0
BBX 4 2 0 3
BITMAP
F0
10
ENDCHAR
STARTCHAR char174
ENCODING 174
SWIDTH 437 0
DWIDTH 7 0
BBX 6 7 -1 0
BITMAP
30
48
B4
A4
A4
48
30
ENDCHAR
STARTCHAR char175
ENCODING 175
SWIDTH 437 0
DWIDTH 7 0
BBX 4 1 0 6
BITMAP
F0
ENDCHAR
STARTCHAR char176
ENCODING 176
SWIDTH 437 0
DWIDTH 7 0
BBX 3 3 1 3
BITMAP
40
A0
40
ENDCHAR
STARTCHAR char177
ENCODING 177
SWIDTH 437 0
DWIDTH 7 0
BBX 5 5 0 0
BITMAP
20
20
F8
20
F8
ENDCHAR
STARTCHAR char178
ENCODING 178
SWIDTH 437 0
DWIDTH 7 0
BBX 3 4 1 3
BITMAP
60
A0
40
E0
ENDCHAR
STARTCHAR char179
ENCODING 179
SWIDTH 437 0
DWIDTH 7 0
BBX 3 4 1 3
BITMAP
E0
60
20
C0
ENDCHAR
STARTCHAR char180
ENCODING 180
SWIDTH 437 0
DWIDTH 7 0
BBX 2 2 1 4
BITMAP
40
80
ENDCHAR
STARTCHAR char181
ENCODING 181
SWIDTH 437 0
DWIDTH 7 0
BBX 5 7 -1 -2
BITMAP
48
48
48
48
70
40
80
ENDCHAR
STARTCHAR char182
ENCODING 182
SWIDTH 437 0
DWIDTH 7 0
BBX 4 8 0 -2
BITMAP
70
D0
D0
D0
50
50
50
60
ENDCHAR
STARTCHAR char183
ENCODING 183
SWIDTH 437 0
DWIDTH 7 0
BBX 1 1 2 2
BITMAP
80
ENDCHAR
STARTCHAR char184
ENCODING 184
SWIDTH 437 0
DWIDTH 7 0
BBX 3 3 0 -3
BITMAP
40
20
C0
ENDCHAR
STARTCHAR char185
ENCODING 185
SWIDTH 437 0
DWIDTH 7 0
BBX 3 4 1 3
BITMAP
C0
40
40
E0
ENDCHAR
STARTCHAR char187
ENCODING 187
SWIDTH 437 0
DWIDTH 7 0
BBX 4 4 0 1
BITMAP
A0
50
50
A0
ENDCHAR
STARTCHAR char192
ENCODING 192
SWIDTH 437 0
DWIDTH 7 0
BBX 4 9 0 0
BITMAP
40
20
60
90
90
F0
90
90
90
ENDCHAR
STARTCHAR char193
ENCODING 193
SWIDTH 437 0
DWIDTH 7 0
BBX 4 9 0 0
BITMAP
20
40
60
90
90
F0
90
90
90
ENDCHAR
STARTCHAR char194
ENCODING 194
SWIDTH 437 0
DWIDTH 7 0
BBX 4 9 0 0
BITMAP
60
90
60
90
90
F0
90
90
90
ENDCHAR
STARTCHAR char195
ENCODING 195
SWIDTH 437 0
DWIDTH 7 0
BBX 4 9 0 0
BITMAP
50
A0
60
90
90
F0
90
90
90
ENDCHAR
STARTCHAR char196
ENCODING 196
SWIDTH 437 0
DWIDTH 7 0
BBX 4 9 0 0
BITMAP
50
00
60
90
90
F0
90
90
90
ENDCHAR
STARTCHAR char197
ENCODING 197
SWIDTH 437 0
DWIDTH 7 0
BBX 4 9 0 0
BITMAP
40
00
60
90
90
F0
90
90
90
ENDCHAR
STARTCHAR char198
ENCODING 198
SWIDTH 437 0
DWIDTH 7 0
BBX 4 7 0 0
BITMAP
70
A0
A0
F0
A0
A0
B0
ENDCHAR
STARTCHAR char199
ENCODING 199
SWIDTH 437 0
DWIDTH 7 0
BBX 4 9 0 -2
BITMAP
60
90
80
80
80
90
60
20
60
ENDCHAR
STARTCHAR char200
ENCODING 200
SWIDTH 437 0
DWIDTH 7 0
BBX 4 9 0 0
BITMAP
40
20
F0
80
80
C0
80
80
F0
ENDCHAR
STARTCHAR char201
ENCODING 201
SWIDTH 437 0
DWIDTH 7 0
BBX 4 9 0 0
BITMAP
20
40
F0
80
80
C0
80
80
F0
ENDCHAR
STARTCHAR char202
ENCODING 202
SWIDTH 437 0
DWIDTH 7 0
BBX 4 9 0 0
BITMAP
60
90
F0
80
80
C0
80
80
F0
ENDCHAR
STARTCHAR char203
ENCODING 203
SWIDTH 437 0
DWIDTH 7 0
BBX 4 9 0 0
BITMAP
50
00
F0
80
80
C0
80
80
F0
ENDCHAR
STARTCHAR char204
ENCODING 204
SWIDTH 437 0
DWIDTH 7 0
BBX 3 9 0 0
BITMAP
80
40
E0
40
40
40
40
40
E0
ENDCHAR
STARTCHAR char205
ENCODING 205
SWIDTH 437 0
DWIDTH 7 0
BBX 3 9 0 0
BITMAP
20
40
E0
40
40
40
40
40
E0
ENDCHAR
STARTCHAR char206
ENCODING 206
SWIDTH 437 0
DWIDTH 7 0
BBX 3 9 0 0
BITMAP
40
A0
E0
40
40
40
40
40
E0
ENDCHAR
STARTCHAR char207
ENCODING 207
SWIDTH 437 0
DWIDTH 7 0
BBX 3 9 0 0
BITMAP
A0
00
E0
40
40
40
40
40
E0
ENDCHAR
STARTCHAR char208
ENCODING 208
SWIDTH 437 0
DWIDTH 7 0
BBX 5 7 -1 0
BITMAP
60
50
48
E8
48
50
60
ENDCHAR
STARTCHAR char209
ENCODING 209
SWIDTH 437 0
DWIDTH 7 0
BBX 4 9 0 0
BITMAP
50
A0
90
D0
D0
B0
B0
90
90
ENDCHAR
STARTCHAR char210
ENCODING 210
SWIDTH 437 0
DWIDTH 7 0
BBX 4 9 0 0
BITMAP
40
20
60
90
90
90
90
90
60
ENDCHAR
STARTCHAR char211
ENCODING 211
SWIDTH 437 0
DWIDTH 7 0
BBX 4 9 0 0
BITMAP
20
40
60
90
90
90
90
90
60
ENDCHAR
STARTCHAR char212
ENCODING 212
SWIDTH 437 0
DWIDTH 7 0
BBX 4 9 0 0
BITMAP
60
90
60
90
90
90
90
90
60
ENDCHAR
STARTCHAR char213
ENCODING 213
SWIDTH 437 0
DWIDTH 7 0
BBX 4 9 0 0
BITMAP
50
A0
60
90
90
90
90
90
60
ENDCHAR
STARTCHAR char214
ENCODING 214
SWIDTH 437 0
DWIDTH 7 0
BBX 4 9 0 0
BITMAP
50
00
60
90
90
90
90
90
60
ENDCHAR
STARTCHAR char215
ENCODING 215
SWIDTH 437 0
DWIDTH 7 0
BBX 4 4 0 0
BITMAP
90
60
60
90
ENDCHAR
STARTCHAR char216
ENCODING 216
SWIDTH 437 0
DWIDTH 7 0
BBX 6 7 -1 0
BITMAP
34
4C
58
68
48
C8
B0
ENDCHAR
STARTCHAR char217
ENCODING 217
SWIDTH 437 0
DWIDTH 7 0
BBX 4 9 0 0
BITMAP
40
20
90
90
90
90
90
90
70
ENDCHAR
STARTCHAR char218
ENCODING 218
SWIDTH 437 0
DWIDTH 7 0
BBX 4 9 0 0
BITMAP
20
40
90
90
90
90
90
90
70
ENDCHAR
STARTCHAR char219
ENCODING 219
SWIDTH 437 0
DWIDTH 7 0
BBX 4 9 0 0
BITMAP
20
50
00
90
90
90
90
90
70
ENDCHAR
STARTCHAR char220
ENCODING 220
SWIDTH 437 0
DWIDTH 7 0
BBX 4 9 0 0
BITMAP
90
00
90
90
90
90
90
90
70
ENDCHAR
STARTCHAR char221
ENCODING 221
SWIDTH 437 0
DWIDTH 7 0
BBX 4 9 0 0
BITMAP
20
40
90
90
90
70
10
90
70
ENDCHAR
STARTCHAR char223
ENCODING 223
SWIDTH 437 0
DWIDTH 7 0
BBX 5 8 -1 -2
BITMAP
60
50
50
68
48
70
40
80
ENDCHAR
STARTCHAR char224
ENCODING 224
SWIDTH 437 0
DWIDTH 7 0
BBX 4 8 0 0
BITMAP
40
20
00
70
90
90
90
70
ENDCHAR
STARTCHAR char225
ENCODING 225
SWIDTH 437 0
DWIDTH 7 0
BBX 4 8 0 0
BITMAP
20
40
00
70
90
90
90
70
ENDCHAR
STARTCHAR char226
ENCODING 226
SWIDTH 437 0
DWIDTH 7 0
BBX 4 8 0 0
BITMAP
20
50
00
70
90
90
90
70
ENDCHAR
STARTCHAR char227
ENCODING 227
SWIDTH 437 0
DWIDTH 7 0
BBX 4 8 0 0
BITMAP
50
A0
00
70
90
90
90
70
ENDCHAR
STARTCHAR char228
ENCODING 228
SWIDTH 437 0
DWIDTH 7 0
BBX 4 7 0 0
BITMAP
50
00
70
90
90
90
70
ENDCHAR
STARTCHAR char229
ENCODING 229
SWIDTH 437 0
DWIDTH 7 0
BBX 4 7 0 0
BITMAP
20
00
70
90
90
90
70
ENDCHAR
STARTCHAR char230
ENCODING 230
SWIDTH 437 0
DWIDTH 7 0
BBX 4 5 0 0
BITMAP
70
A0
F0
A0
B0
ENDCHAR
STARTCHAR char231
ENCODING 231
SWIDTH 437 0
DWIDTH 7 0
BBX 4 7 0 -2
BITMAP
60
90
80
90
60
20
60
ENDCHAR
STARTCHAR char232
ENCODING 232
SWIDTH 437 0
DWIDTH 7 0
BBX 4 8 0 0
BITMAP
40
20
00
60
90
F0
80
70
ENDCHAR
STARTCHAR char233
ENCODING 233
SWIDTH 437 0
DWIDTH 7 0
BBX 4 8 0 0
BITMAP
20
40
00
60
90
F0
80
70
ENDCHAR
STARTCHAR char234
ENCODING 234
SWIDTH 437 0
DWIDTH 7 0
BBX 4 8 0 0
BITMAP
20
50
00
60
90
F0
80
70
ENDCHAR
STARTCHAR char235
ENCODING 235
SWIDTH 437 0
DWIDTH 7 0
BBX 4 7 0 0
BITMAP
50
00
60
90
F0
80
70
ENDCHAR
STARTCHAR char236
ENCODING 236
SWIDTH 437 0
DWIDTH 7 0
BBX 3 8 0 0
BITMAP
80
40
00
C0
40
40
40
60
ENDCHAR
STARTCHAR char237
ENCODING 237
SWIDTH 437 0
DWIDTH 7 0
BBX 3 8 0 0
BITMAP
20
40
00
C0
40
40
40
60
ENDCHAR
STARTCHAR char238
ENCODING 238
SWIDTH 437 0
DWIDTH 7 0
BBX 3 8 0 0
BITMAP
40
A0
00
C0
40
40
40
60
ENDCHAR
STARTCHAR char239
ENCODING 239
SWIDTH 437 0
DWIDTH 7 0
BBX 3 7 0 0
BITMAP
A0
00
C0
40
40
40
60
ENDCHAR
STARTCHAR char240
ENCODING 240
SWIDTH 437 0
DWIDTH 7 0
BBX 4 7 0 0
BITMAP
60
10
70
90
90
90
60
ENDCHAR
STARTCHAR char241
ENCODING 241
SWIDTH 437 0
DWIDTH 7 0
BBX 4 8 0 0
BITMAP
50
A0
00
E0
90
90
90
90
ENDCHAR
STARTCHAR char242
ENCODING 242
SWIDTH 437 0
DWIDTH 7 0
BBX 4 8 0 0
BITMAP
40
20
00
60
90
90
90
60
ENDCHAR
STARTCHAR char243
ENCODING 243
SWIDTH 437 0
DWIDTH 7 0
BBX 4 8 0 0
BITMAP
40
20
00
60
90
90
90
60
ENDCHAR
STARTCHAR char244
ENCODING 244
SWIDTH 437 0
DWIDTH 7 0
BBX 4 8 0 0
BITMAP
60
90
00
60
90
90
90
60
ENDCHAR
STARTCHAR char245
ENCODING 245
SWIDTH 437 0
DWIDTH 7 0
BBX 4 8 0 0
BITMAP
50
A0
00
60
90
90
90
60
ENDCHAR
STARTCHAR char246
ENCODING 246
SWIDTH 437 0
DWIDTH 7 0
BBX 4 7 0 0
BITMAP
50
00
60
90
90
90
60
ENDCHAR
STARTCHAR char247
ENCODING 247
SWIDTH 437 0
DWIDTH 7 0
BBX 4 5 0 0
BITMAP
60
00
F0
00
60
ENDCHAR
STARTCHAR char248
ENCODING 248
SWIDTH 437 0
DWIDTH 7 0
BBX 6 6 -1 0
BITMAP
04
38
58
68
48
B0
ENDCHAR
STARTCHAR char249
ENCODING 249
SWIDTH 437 0
DWIDTH 7 0
BBX 4 8 0 0
BITMAP
40
20
00
90
90
90
90
70
ENDCHAR
STARTCHAR char250
ENCODING 250
SWIDTH 437 0
DWIDTH 7 0
BBX 4 8 0 0
BITMAP
20
40
00
90
90
90
90
70
ENDCHAR
STARTCHAR char251
ENCODING 251
SWIDTH 437 0
DWIDTH 7 0
BBX 4 8 0 0
BITMAP
60
90
00
90
90
90
90
70
ENDCHAR
STARTCHAR char252
ENCODING 252
SWIDTH 437 0
DWIDTH 7 0
BBX 4 7 0 0
BITMAP
50
00
90
90
90
90
60
ENDCHAR
STARTCHAR char253
ENCODING 253
SWIDTH 437 0
DWIDTH 7 0
BBX 4 10 0 -2
BITMAP
20
40
00
90
90
90
90
70
90
60
ENDCHAR
STARTCHAR char255
ENCODING 255
SWIDTH 437 0
DWIDTH 7 0
BBX 4 9 0 -2
BITMAP
50
00
90
90
90
90
70
90
60
ENDCHAR
STARTCHAR char945
ENCODING 945
SWIDTH 437 0
DWIDTH 7 0
BBX 4 4 0 0
BITMAP
50
A0
A0
70
ENDCHAR
STARTCHAR char946
ENCODING 946
SWIDTH 437 0
DWIDTH 7 0
BBX 5 8 -1 -2
BITMAP
60
50
50
68
48
70
40
80
ENDCHAR
STARTCHAR char947
ENCODING 947
SWIDTH 437 0
DWIDTH 7 0
BBX 4 6 0 -2
BITMAP
90
60
20
50
50
20
ENDCHAR
STARTCHAR char955
ENCODING 955
SWIDTH 437 0
DWIDTH 7 0
BBX 4 6 0 0
BITMAP
40
A0
20
60
A0
90
ENDCHAR
STARTCHAR char956
ENCODING 956
SWIDTH 437 0
DWIDTH 7 0
BBX 5 7 -1 -2
BITMAP
48
48
48
48
70
40
80
ENDCHAR
STARTCHAR char960
ENCODING 960
SWIDTH 437 0
DWIDTH 7 0
BBX 4 5 0 0
BITMAP
F0
60
A0
A0
90
ENDCHAR
STARTCHAR char964
ENCODING 964
SWIDTH 437 0
DWIDTH 7 0
BBX 4 5 0 0
BITMAP
F0
40
40
50
20
ENDCHAR
STARTCHAR char966
ENCODING 966
SWIDTH 437 0
DWIDTH 7 0
BBX 4 8 0 -3
BITMAP
40
B0
D0
F0
60
40
40
20
ENDCHAR
STARTCHAR char7838
ENCODING 7838
SWIDTH 437 0
DWIDTH 7 0
BBX 5 8 -1 -2
BITMAP
60
50
50
68
48
78
40
C0
ENDCHAR
STARTCHAR char8212
ENCODING 8212
SWIDTH 437 0
DWIDTH 7 0
BBX 6 1 -1 2
BITMAP
FC
ENDCHAR
STARTCHAR char8216
ENCODING 8216
SWIDTH 437 0
DWIDTH 7 0
BBX 2 3 1 4
BITMAP
C0
80
40
ENDCHAR
STARTCHAR char8217
ENCODING 8217
SWIDTH 437 0
DWIDTH 7 0
BBX 2 3 1 4
BITMAP
C0
40
80
ENDCHAR
STARTCHAR char8218
ENCODING 8218
SWIDTH 437 0
DWIDTH 7 0
BBX 2 3 2 -2
BITMAP
C0
40
80
ENDCHAR
STARTCHAR char8219
ENCODING 8219
SWIDTH 437 0
DWIDTH 7 0
BBX 2 3 1 3
BITMAP
C0
80
40
ENDCHAR
STARTCHAR char8220
ENCODING 8220
SWIDTH 437 0
DWIDTH 7 0
BBX 4 3 0 4
BITMAP
F0
A0
50
ENDCHAR
STARTCHAR char8221
ENCODING 8221
SWIDTH 437 0
DWIDTH 7 0
BBX 4 3 0 4
BITMAP
F0
50
A0
ENDCHAR
STARTCHAR char8222
ENCODING 8222
SWIDTH 437 0
DWIDTH 7 0
BBX 4 3 0 -2
BITMAP
F0
50
A0
ENDCHAR
STARTCHAR char8224
ENCODING 8224
SWIDTH 437 0
DWIDTH 7 0
BBX 3 5 0 0
BITMAP
40
E0
40
40
40
ENDCHAR
STARTCHAR char8226
ENCODING 8226
SWIDTH 437 0
DWIDTH 7 0
BBX 3 3 1 1
BITMAP
40
A0
40
ENDCHAR
STARTCHAR char8230
ENCODING 8230
SWIDTH 437 0
DWIDTH 7 0
BBX 5 1 0 2
BITMAP
A8
ENDCHAR
STARTCHAR char8249
ENCODING 8249
SWIDTH 437 0
DWIDTH 7 0
BBX 4 7 0 -1
BITMAP
10
20
40
80
40
20
10
ENDCHAR
STARTCHAR char8250
ENCODING 8250
SWIDTH 437 0
DWIDTH 7 0
BBX 4 7 0 -1
BITMAP
80
40
20
10
20
40
80
ENDCHAR
STARTCHAR char8364
ENCODING 8364
SWIDTH 437 0
DWIDTH 7 0
BBX 4 6 0 0
BITMAP
70
80
E0
E0
80
70
ENDCHAR
STARTCHAR char8592
ENCODING 8592
SWIDTH 437 0
DWIDTH 7 0
BBX 5 3 0 1
BITMAP
40
F8
40
ENDCHAR
STARTCHAR char8593
ENCODING 8593
SWIDTH 437 0
DWIDTH 7 0
BBX 3 5 0 0
BITMAP
40
E0
40
40
40
ENDCHAR
STARTCHAR char8594
ENCODING 8594
SWIDTH 437 0
DWIDTH 7 0
BBX 5 3 -1 1
BITMAP
10
F8
10
ENDCHAR
STARTCHAR char8595
ENCODING 8595
SWIDTH 437 0
DWIDTH 7 0
BBX 3 5 0 0
BITMAP
40
40
40
E0
40
ENDCHAR
STARTCHAR char8596
ENCODING 8596
SWIDTH 437 0
DWIDTH 7 0
BBX 6 3 -1 1
BITMAP
48
FC
48
ENDCHAR
STARTCHAR char8597
ENCODING 8597
SWIDTH 437 0
DWIDTH 7 0
BBX 3 6 0 -1
BITMAP
40
E0
40
40
E0
40
ENDCHAR
STARTCHAR char8598
ENCODING 8598
SWIDTH 437 0
DWIDTH 7 0
BBX 4 4 0 0
BITMAP
C0
C0
20
10
ENDCHAR
STARTCHAR char8599
ENCODING 8599
SWIDTH 437 0
DWIDTH 7 0
BBX 4 4 0 0
BITMAP
30
30
40
80
ENDCHAR
STARTCHAR char8600
ENCODING 8600
SWIDTH 437 0
DWIDTH 7 0
BBX 4 4 0 0
BITMAP
80
40
30
30
ENDCHAR
STARTCHAR char8601
ENCODING 8601
SWIDTH 437 0
DWIDTH 7 0
BBX 4 4 0 0
BITMAP
10
20
C0
C0
ENDCHAR
STARTCHAR char8656
ENCODING 8656
SWIDTH 437 0
DWIDTH 7 0
BBX 5 5 -1 0
BITMAP
20
78
C0
78
20
ENDCHAR
STARTCHAR char8657
ENCODING 8657
SWIDTH 437 0
DWIDTH 7 0
BBX 0 0 0 0
BITMAP
ENDCHAR
STARTCHAR char8658
ENCODING 8658
SWIDTH 437 0
DWIDTH 7 0
BBX 5 5 -1 0
BITMAP
20
F0
18
F0
20
ENDCHAR
STARTCHAR char9472
ENCODING 9472
SWIDTH 437 0
DWIDTH 7 0
BBX 6 1 0 3
BITMAP
FC
ENDCHAR
STARTCHAR char9473
ENCODING 9473
SWIDTH 437 0
DWIDTH 7 0
BBX 6 2 0 3
BITMAP
FC
FC
ENDCHAR
STARTCHAR char9474
ENCODING 9474
SWIDTH 437 0
DWIDTH 7 0
BBX 1 12 2 -3
BITMAP
80
80
80
80
80
80
80
80
80
80
80
80
ENDCHAR
STARTCHAR char9475
ENCODING 9475
SWIDTH 437 0
DWIDTH 7 0
BBX 2 12 1 -3
BITMAP
C0
C0
C0
C0
C0
C0
C0
C0
C0
C0
C0
C0
ENDCHAR
STARTCHAR char9476
ENCODING 9476
SWIDTH 437 0
DWIDTH 7 0
BBX 5 1 0 3
BITMAP
A8
ENDCHAR
STARTCHAR char9477
ENCODING 9477
SWIDTH 437 0
DWIDTH 7 0
BBX 5 2 0 3
BITMAP
A8
A8
ENDCHAR
STARTCHAR char9478
ENCODING 9478
SWIDTH 437 0
DWIDTH 7 0
BBX 3 11 0 -3
BITMAP
20
20
00
20
20
00
20
20
00
20
20
ENDCHAR
STARTCHAR char9479
ENCODING 9479
SWIDTH 437 0
DWIDTH 7 0
BBX 2 11 1 -3
BITMAP
C0
C0
00
C0
C0
00
C0
C0
00
C0
C0
ENDCHAR
STARTCHAR char9480
ENCODING 9480
SWIDTH 437 0
DWIDTH 7 0
BBX 5 1 0 3
BITMAP
A8
ENDCHAR
STARTCHAR char9481
ENCODING 9481
SWIDTH 437 0
DWIDTH 7 0
BBX 5 2 0 3
BITMAP
A8
A8
ENDCHAR
STARTCHAR char9482
ENCODING 9482
SWIDTH 437 0
DWIDTH 7 0
BBX 3 11 0 -3
BITMAP
20
00
20
00
20
00
20
00
20
00
20
ENDCHAR
STARTCHAR char9483
ENCODING 9483
SWIDTH 437 0
DWIDTH 7 0
BBX 3 11 0 -3
BITMAP
60
00
60
00
60
00
60
00
60
00
60
ENDCHAR
STARTCHAR char9484
ENCODING 9484
SWIDTH 437 0
DWIDTH 7 0
BBX 4 7 2 -3
BITMAP
F0
80
80
80
80
80
80
ENDCHAR
STARTCHAR char9485
ENCODING 9485
SWIDTH 437 0
DWIDTH 7 0
BBX 6 8 0 -3
BITMAP
3C
3C
20
20
20
20
20
20
ENDCHAR
STARTCHAR char9486
ENCODING 9486
SWIDTH 437 0
DWIDTH 7 0
BBX 5 7 1 -3
BITMAP
F8
C0
C0
C0
C0
C0
C0
ENDCHAR
STARTCHAR char9487
ENCODING 9487
SWIDTH 437 0
DWIDTH 7 0
BBX 6 8 0 -3
BITMAP
7C
7C
60
60
60
60
60
60
ENDCHAR
STARTCHAR char9488
ENCODING 9488
SWIDTH 437 0
DWIDTH 7 0
BBX 4 7 -1 -3
BITMAP
F0
10
10
10
10
10
10
ENDCHAR
STARTCHAR char9489
ENCODING 9489
SWIDTH 437 0
DWIDTH 7 0
BBX 4 8 -1 -3
BITMAP
F0
F0
10
10
10
10
10
10
ENDCHAR
STARTCHAR char9490
ENCODING 9490
SWIDTH 437 0
DWIDTH 7 0
BBX 4 7 -1 -3
BITMAP
F0
30
30
30
30
30
30
ENDCHAR
STARTCHAR char9491
ENCODING 9491
SWIDTH 437 0
DWIDTH 7 0
BBX 4 8 -1 -3
BITMAP
F0
F0
30
30
30
30
30
30
ENDCHAR
STARTCHAR char9492
ENCODING 9492
SWIDTH 437 0
DWIDTH 7 0
BBX 4 6 2 3
BITMAP
80
80
80
80
80
F0
ENDCHAR
STARTCHAR char9493
ENCODING 9493
SWIDTH 437 0
DWIDTH 7 0
BBX 4 6 2 3
BITMAP
80
80
80
80
F0
F0
ENDCHAR
STARTCHAR char9494
ENCODING 9494
SWIDTH 437 0
DWIDTH 7 0
BBX 5 6 1 3
BITMAP
C0
C0
C0
C0
C0
F8
ENDCHAR
STARTCHAR char9495
ENCODING 9495
SWIDTH 437 0
DWIDTH 7 0
BBX 5 6 1 3
BITMAP
C0
C0
C0
C0
F8
F8
ENDCHAR
STARTCHAR char9496
ENCODING 9496
SWIDTH 437 0
DWIDTH 7 0
BBX 4 6 -1 3
BITMAP
10
10
10
10
10
F0
ENDCHAR
STARTCHAR char9497
ENCODING 9497
SWIDTH 437 0
DWIDTH 7 0
BBX 4 6 -1 3
BITMAP
10
10
10
10
F0
F0
ENDCHAR
STARTCHAR char9498
ENCODING 9498
SWIDTH 437 0
DWIDTH 7 0
BBX 4 6 -1 3
BITMAP
30
30
30
30
30
F0
ENDCHAR
STARTCHAR char9499
ENCODING 9499
SWIDTH 437 0
DWIDTH 7 0
BBX 4 6 -1 3
BITMAP
30
30
30
30
F0
F0
ENDCHAR
STARTCHAR char9500
ENCODING 9500
SWIDTH 437 0
DWIDTH 7 0
BBX 4 12 2 -3
BITMAP
80
80
80
80
80
F0
80
80
80
80
80
80
ENDCHAR
STARTCHAR char9501
ENCODING 9501
SWIDTH 437 0
DWIDTH 7 0
BBX 4 12 2 -3
BITMAP
80
80
80
80
F0
F0
80
80
80
80
80
80
ENDCHAR
STARTCHAR char9502
ENCODING 9502
SWIDTH 437 0
DWIDTH 7 0
BBX 5 12 1 -3
BITMAP
C0
C0
C0
C0
C0
F8
40
40
40
40
40
40
ENDCHAR
STARTCHAR char9503
ENCODING 9503
SWIDTH 437 0
DWIDTH 7 0
BBX 5 12 1 -3
BITMAP
40
40
40
40
40
F8
C0
C0
C0
C0
C0
C0
ENDCHAR
STARTCHAR char9504
ENCODING 9504
SWIDTH 437 0
DWIDTH 7 0
BBX 6 12 0 -3
BITMAP
60
60
60
60
60
7C
60
60
60
60
60
60
ENDCHAR
STARTCHAR char9505
ENCODING 9505
SWIDTH 437 0
DWIDTH 7 0
BBX 5 12 1 -3
BITMAP
C0
C0
C0
C0
F8
F8
40
40
40
40
40
40
ENDCHAR
STARTCHAR char9506
ENCODING 9506
SWIDTH 437 0
DWIDTH 7 0
BBX 5 12 1 -3
BITMAP
40
40
40
40
F8
F8
C0
C0
C0
C0
C0
C0
ENDCHAR
STARTCHAR char9507
ENCODING 9507
SWIDTH 437 0
DWIDTH 7 0
BBX 6 12 0 -3
BITMAP
60
60
60
60
7C
7C
60
60
60
60
60
60
ENDCHAR
STARTCHAR char9508
ENCODING 9508
SWIDTH 437 0
DWIDTH 7 0
BBX 4 12 -1 -3
BITMAP
10
10
10
10
10
F0
10
10
10
10
10
10
ENDCHAR
STARTCHAR char9509
ENCODING 9509
SWIDTH 437 0
DWIDTH 7 0
BBX 4 12 -1 -3
BITMAP
10
10
10
10
F0
F0
10
10
10
10
10
10
ENDCHAR
STARTCHAR char9510
ENCODING 9510
SWIDTH 437 0
DWIDTH 7 0
BBX 4 12 -1 -3
BITMAP
30
30
30
30
30
F0
10
10
10
10
10
10
ENDCHAR
STARTCHAR char9511
ENCODING 9511
SWIDTH 437 0
DWIDTH 7 0
BBX 4 12 -1 -3
BITMAP
10
10
10
10
10
F0
30
30
30
30
30
30
ENDCHAR
STARTCHAR char9512
ENCODING 9512
SWIDTH 437 0
DWIDTH 7 0
BBX 4 12 -1 -3
BITMAP
30
30
30
30
30
F0
30
30
30
30
30
30
ENDCHAR
STARTCHAR char9513
ENCODING 9513
SWIDTH 437 0
DWIDTH 7 0
BBX 4 12 -1 -3
BITMAP
30
30
30
30
F0
F0
10
10
10
10
10
10
ENDCHAR
STARTCHAR char9514
ENCODING 9514
SWIDTH 437 0
DWIDTH 7 0
BBX 4 12 -1 -3
BITMAP
10
10
10
10
F0
F0
30
30
30
30
30
30
ENDCHAR
STARTCHAR char9515
ENCODING 9515
SWIDTH 437 0
DWIDTH 7 0
BBX 4 12 -1 -3
BITMAP
30
30
30
30
F0
F0
30
30
30
30
30
30
ENDCHAR
STARTCHAR char9516
ENCODING 9516
SWIDTH 437 0
DWIDTH 7 0
BBX 7 7 -1 -3
BITMAP
FE
10
10
10
10
10
10
ENDCHAR
STARTCHAR char9517
ENCODING 9517
SWIDTH 437 0
DWIDTH 7 0
BBX 7 8 -1 -3
BITMAP
F0
FE
10
10
10
10
10
10
ENDCHAR
STARTCHAR char9518
ENCODING 9518
SWIDTH 437 0
DWIDTH 7 0
BBX 7 8 -1 -3
BITMAP
1E
FE
10
10
10
10
10
10
ENDCHAR
STARTCHAR char9519
ENCODING 9519
SWIDTH 437 0
DWIDTH 7 0
BBX 7 8 -1 -3
BITMAP
FE
FE
10
10
10
10
10
10
ENDCHAR
STARTCHAR char9520
ENCODING 9520
SWIDTH 437 0
DWIDTH 7 0
BBX 7 7 -1 -3
BITMAP
FE
30
30
30
30
30
30
ENDCHAR
STARTCHAR char9521
ENCODING 9521
SWIDTH 437 0
DWIDTH 7 0
BBX 7 8 -1 -3
BITMAP
F0
FE
30
30
30
30
30
30
ENDCHAR
STARTCHAR char9522
ENCODING 9522
SWIDTH 437 0
DWIDTH 7 0
BBX 7 8 -1 -3
BITMAP
3E
FE
30
30
30
30
30
30
ENDCHAR
STARTCHAR char9523
ENCODING 9523
SWIDTH 437 0
DWIDTH 7 0
BBX 7 8 -1 -3
BITMAP
FE
FE
30
30
30
30
30
30
ENDCHAR
STARTCHAR char9524
ENCODING 9524
SWIDTH 437 0
DWIDTH 7 0
BBX 7 6 -1 3
BITMAP
10
10
10
10
10
FE
ENDCHAR
STARTCHAR char9525
ENCODING 9525
SWIDTH 437 0
DWIDTH 7 0
BBX 7 6 -1 3
BITMAP
10
10
10
10
F0
FE
ENDCHAR
STARTCHAR char9526
ENCODING 9526
SWIDTH 437 0
DWIDTH 7 0
BBX 7 6 -1 3
BITMAP
10
10
10
10
1E
FE
ENDCHAR
STARTCHAR char9527
ENCODING 9527
SWIDTH 437 0
DWIDTH 7 0
BBX 7 6 -1 3
BITMAP
10
10
10
10
FE
FE
ENDCHAR
STARTCHAR char9528
ENCODING 9528
SWIDTH 437 0
DWIDTH 7 0
BBX 7 6 -1 3
BITMAP
30
30
30
30
30
FE
ENDCHAR
STARTCHAR char9529
ENCODING 9529
SWIDTH 437 0
DWIDTH 7 0
BBX 7 6 -1 3
BITMAP
30
30
30
30
F0
FE
ENDCHAR
STARTCHAR char9530
ENCODING 9530
SWIDTH 437 0
DWIDTH 7 0
BBX 7 6 -1 3
BITMAP
30
30
30
30
3E
FE
ENDCHAR
STARTCHAR char9531
ENCODING 9531
SWIDTH 437 0
DWIDTH 7 0
BBX 7 6 -1 3
BITMAP
30
30
30
30
FE
FE
ENDCHAR
STARTCHAR char9532
ENCODING 9532
SWIDTH 437 0
DWIDTH 7 0
BBX 7 12 -1 -3
BITMAP
10
10
10
10
10
FE
10
10
10
10
10
10
ENDCHAR
STARTCHAR char9533
ENCODING 9533
SWIDTH 437 0
DWIDTH 7 0
BBX 7 12 -1 -3
BITMAP
10
10
10
10
F0
FE
10
10
10
10
10
10
ENDCHAR
STARTCHAR char9534
ENCODING 9534
SWIDTH 437 0
DWIDTH 7 0
BBX 7 12 -1 -3
BITMAP
10
10
10
10
1E
FE
10
10
10
10
10
10
ENDCHAR
STARTCHAR char9535
ENCODING 9535
SWIDTH 437 0
DWIDTH 7 0
BBX 7 12 -1 -3
BITMAP
10
10
10
10
FE
FE
10
10
10
10
10
10
ENDCHAR
STARTCHAR char9536
ENCODING 9536
SWIDTH 437 0
DWIDTH 7 0
BBX 7 12 -1 -3
BITMAP
30
30
30
30
30
FE
10
10
10
10
10
10
ENDCHAR
STARTCHAR char9537
ENCODING 9537
SWIDTH 437 0
DWIDTH 7 0
BBX 7 12 -1 -3
BITMAP
10
10
10
10
10
FE
30
30
30
30
30
30
ENDCHAR
STARTCHAR char9538
ENCODING 9538
SWIDTH 437 0
DWIDTH 7 0
BBX 7 12 -1 -3
BITMAP
30
30
30
30
30
FE
30
30
30
30
30
30
ENDCHAR
STARTCHAR char9539
ENCODING 9539
SWIDTH 437 0
DWIDTH 7 0
BBX 7 12 -1 -3
BITMAP
30
30
30
30
F0
FE
10
10
10
10
10
10
ENDCHAR
STARTCHAR char9540
ENCODING 9540
SWIDTH 437 0
DWIDTH 7 0
BBX 7 12 -1 -3
BITMAP
30
30
30
30
3E
FE
10
10
10
10
10
10
ENDCHAR
STARTCHAR char9541
ENCODING 9541
SWIDTH 437 0
DWIDTH 7 0
BBX 7 12 -1 -3
BITMAP
10
10
10
10
F0
FE
30
30
30
30
30
30
ENDCHAR
STARTCHAR char9542
ENCODING 9542
SWIDTH 437 0
DWIDTH 7 0
BBX 7 12 -1 -3
BITMAP
10
10
10
10
3E
FE
30
30
30
30
30
30
ENDCHAR
STARTCHAR char9543
ENCODING 9543
SWIDTH 437 0
DWIDTH 7 0
BBX 7 12 -1 -3
BITMAP
30
30
30
30
FE
FE
10
10
10
10
10
10
ENDCHAR
STARTCHAR char9544
ENCODING 9544
SWIDTH 437 0
DWIDTH 7 0
BBX 7 12 -1 -3
BITMAP
10
10
10
10
FE
FE
30
30
30
30
30
30
ENDCHAR
STARTCHAR char9545
ENCODING 9545
SWIDTH 437 0
DWIDTH 7 0
BBX 7 12 -1 -3
BITMAP
30
30
30
30
F0
FE
30
30
30
30
30
30
ENDCHAR
STARTCHAR char9546
ENCODING 9546
SWIDTH 437 0
DWIDTH 7 0
BBX 7 12 -1 -3
BITMAP
30
30
30
30
3E
FE
30
30
30
30
30
30
ENDCHAR
STARTCHAR char9547
ENCODING 9547
SWIDTH 437 0
DWIDTH 7 0
BBX 7 12 -1 -3
BITMAP
30
30
30
30
FE
FE
30
30
30
30
30
30
ENDCHAR
STARTCHAR char9548
ENCODING 9548
SWIDTH 437 0
DWIDTH 7 0
BBX 6 1 0 3
BITMAP
DC
ENDCHAR
STARTCHAR char9549
ENCODING 9549
SWIDTH 437 0
DWIDTH 7 0
BBX 6 2 0 3
BITMAP
DC
DC
ENDCHAR
STARTCHAR char9550
ENCODING 9550
SWIDTH 437 0
DWIDTH 7 0
BBX 1 12 2 -3
BITMAP
80
80
80
80
80
00
80
80
80
80
80
80
ENDCHAR
STARTCHAR char9551
ENCODING 9551
SWIDTH 437 0
DWIDTH 7 0
BBX 2 12 1 -3
BITMAP
C0
C0
C0
C0
C0
00
C0
C0
C0
C0
C0
C0
ENDCHAR
STARTCHAR char9552
ENCODING 9552
SWIDTH 437 0
DWIDTH 7 0
BBX 6 3 0 2
BITMAP
FC
00
FC
ENDCHAR
STARTCHAR char9553
ENCODING 9553
SWIDTH 437 0
DWIDTH 7 0
BBX 4 12 0 -3
BITMAP
50
50
50
50
50
50
50
50
50
50
50
50
ENDCHAR
STARTCHAR char9554
ENCODING 9554
SWIDTH 437 0
DWIDTH 7 0
BBX 4 8 2 -3
BITMAP
F0
80
F0
80
80
80
80
80
ENDCHAR
STARTCHAR char9555
ENCODING 9555
SWIDTH 437 0
DWIDTH 7 0
BBX 6 7 0 -3
BITMAP
7C
50
50
50
50
50
50
ENDCHAR
STARTCHAR char9556
ENCODING 9556
SWIDTH 437 0
DWIDTH 7 0
BBX 5 8 1 -3
BITMAP
F8
80
B8
A0
A0
A0
A0
A0
ENDCHAR
STARTCHAR char9557
ENCODING 9557
SWIDTH 437 0
DWIDTH 7 0
BBX 4 8 -1 -3
BITMAP
F0
10
F0
10
10
10
10
10
ENDCHAR
STARTCHAR char9558
ENCODING 9558
SWIDTH 437 0
DWIDTH 7 0
BBX 5 7 -1 -3
BITMAP
F8
28
28
28
28
28
28
ENDCHAR
STARTCHAR char9559
ENCODING 9559
SWIDTH 437 0
DWIDTH 7 0
BBX 5 8 -1 -3
BITMAP
F8
08
E8
28
28
28
28
28
ENDCHAR
STARTCHAR char9560
ENCODING 9560
SWIDTH 437 0
DWIDTH 7 0
BBX 4 7 2 2
BITMAP
80
80
80
80
F0
80
F0
ENDCHAR
STARTCHAR char9561
ENCODING 9561
SWIDTH 437 0
DWIDTH 7 0
BBX 5 6 1 3
BITMAP
A0
A0
A0
A0
A0
F8
ENDCHAR
STARTCHAR char9562
ENCODING 9562
SWIDTH 437 0
DWIDTH 7 0
BBX 5 7 1 2
BITMAP
A0
A0
A0
A0
B8
80
F8
ENDCHAR
STARTCHAR char9563
ENCODING 9563
SWIDTH 437 0
DWIDTH 7 0
BBX 4 7 -1 2
BITMAP
10
10
10
10
F0
10
F0
ENDCHAR
STARTCHAR char9564
ENCODING 9564
SWIDTH 437 0
DWIDTH 7 0
BBX 5 6 -1 3
BITMAP
28
28
28
28
28
F8
ENDCHAR
STARTCHAR char9565
ENCODING 9565
SWIDTH 437 0
DWIDTH 7 0
BBX 5 7 -1 2
BITMAP
28
28
28
28
E8
08
F8
ENDCHAR
STARTCHAR char9566
ENCODING 9566
SWIDTH 437 0
DWIDTH 7 0
BBX 4 12 2 -3
BITMAP
80
80
80
80
F0
80
F0
80
80
80
80
80
ENDCHAR
STARTCHAR char9567
ENCODING 9567
SWIDTH 437 0
DWIDTH 7 0
BBX 5 12 1 -3
BITMAP
A0
A0
A0
A0
A0
B8
A0
A0
A0
A0
A0
A0
ENDCHAR
STARTCHAR char9568
ENCODING 9568
SWIDTH 437 0
DWIDTH 7 0
BBX 6 12 0 -3
BITMAP
50
50
50
50
5C
40
5C
50
50
50
50
50
ENDCHAR
STARTCHAR char9569
ENCODING 9569
SWIDTH 437 0
DWIDTH 7 0
BBX 4 12 -1 -3
BITMAP
10
10
10
10
F0
10
F0
10
10
10
10
10
ENDCHAR
STARTCHAR char9570
ENCODING 9570
SWIDTH 437 0
DWIDTH 7 0
BBX 5 12 -1 -3
BITMAP
28
28
28
28
28
E8
28
28
28
28
28
28
ENDCHAR
STARTCHAR char9571
ENCODING 9571
SWIDTH 437 0
DWIDTH 7 0
BBX 5 12 -1 -3
BITMAP
28
28
28
28
E8
08
E8
28
28
28
28
28
ENDCHAR
STARTCHAR char9572
ENCODING 9572
SWIDTH 437 0
DWIDTH 7 0
BBX 7 8 -1 -3
BITMAP
FE
00
FE
10
10
10
10
10
ENDCHAR
STARTCHAR char9573
ENCODING 9573
SWIDTH 437 0
DWIDTH 7 0
BBX 7 7 -1 -3
BITMAP
FE
28
28
28
28
28
28
ENDCHAR
STARTCHAR char9574
ENCODING 9574
SWIDTH 437 0
DWIDTH 7 0
BBX 7 8 -1 -3
BITMAP
FE
00
EE
28
28
28
28
28
ENDCHAR
STARTCHAR char9575
ENCODING 9575
SWIDTH 437 0
DWIDTH 7 0
BBX 7 7 -1 2
BITMAP
10
10
10
10
FE
00
FE
ENDCHAR
STARTCHAR char9576
ENCODING 9576
SWIDTH 437 0
DWIDTH 7 0
BBX 7 6 -1 3
BITMAP
28
28
28
28
28
FE
ENDCHAR
STARTCHAR char9577
ENCODING 9577
SWIDTH 437 0
DWIDTH 7 0
BBX 7 7 -1 2
BITMAP
28
28
28
28
EE
00
FE
ENDCHAR
STARTCHAR char9578
ENCODING 9578
SWIDTH 437 0
DWIDTH 7 0
BBX 7 12 -1 -3
BITMAP
10
10
10
10
FE
00
FE
10
10
10
10
10
ENDCHAR
STARTCHAR char9579
ENCODING 9579
SWIDTH 437 0
DWIDTH 7 0
BBX 7 12 -1 -3
BITMAP
28
28
28
28
28
EE
28
28
28
28
28
28
ENDCHAR
STARTCHAR char9580
ENCODING 9580
SWIDTH 437 0
DWIDTH 7 0
BBX 7 12 -1 -3
BITMAP
28
28
28
28
EE
00
EE
28
28
28
28
28
ENDCHAR
STARTCHAR char9581
ENCODING 9581
SWIDTH 437 0
DWIDTH 7 0
BBX 4 7 2 -3
BITMAP
70
C0
80
80
80
80
80
ENDCHAR
STARTCHAR char9582
ENCODING 9582
SWIDTH 437 0
DWIDTH 7 0
BBX 4 7 -1 -3
BITMAP
E0
30
10
10
10
10
10
ENDCHAR
STARTCHAR char9583
ENCODING 9583
SWIDTH 437 0
DWIDTH 7 0
BBX 4 6 -1 3
BITMAP
10
10
10
10
30
E0
ENDCHAR
STARTCHAR char9584
ENCODING 9584
SWIDTH 437 0
DWIDTH 7 0
BBX 4 6 2 3
BITMAP
80
80
80
80
C0
70
ENDCHAR
STARTCHAR char9585
ENCODING 9585
SWIDTH 437 0
DWIDTH 7 0
BBX 7 7 -1 0
BITMAP
02
04
08
10
20
40
80
ENDCHAR
STARTCHAR char9586
ENCODING 9586
SWIDTH 437 0
DWIDTH 7 0
BBX 7 7 -1 0
BITMAP
02
04
08
10
20
40
80
ENDCHAR
STARTCHAR char9587
ENCODING 9587
SWIDTH 437 0
DWIDTH 7 0
BBX 7 7 -1 0
BITMAP
82
44
28
10
28
44
82
ENDCHAR
STARTCHAR char9588
ENCODING 9588
SWIDTH 437 0
DWIDTH 7 0
BBX 3 1 0 3
BITMAP
E0
ENDCHAR
STARTCHAR char9589
ENCODING 9589
SWIDTH 437 0
DWIDTH 7 0
BBX 1 6 2 3
BITMAP
80
80
80
80
80
80
ENDCHAR
STARTCHAR char9590
ENCODING 9590
SWIDTH 437 0
DWIDTH 7 0
BBX 4 1 2 3
BITMAP
F0
ENDCHAR
STARTCHAR char9591
ENCODING 9591
SWIDTH 437 0
DWIDTH 7 0
BBX 1 7 2 -3
BITMAP
80
80
80
80
80
80
80
ENDCHAR
STARTCHAR char9592
ENCODING 9592
SWIDTH 437 0
DWIDTH 7 0
BBX 3 2 0 3
BITMAP
E0
E0
ENDCHAR
STARTCHAR char9593
ENCODING 9593
SWIDTH 437 0
DWIDTH 7 0
BBX 2 6 1 3
BITMAP
C0
C0
C0
C0
C0
C0
ENDCHAR
STARTCHAR char9594
ENCODING 9594
SWIDTH 437 0
DWIDTH 7 0
BBX 4 2 2 3
BITMAP
F0
F0
ENDCHAR
STARTCHAR char9595
ENCODING 9595
SWIDTH 437 0
DWIDTH 7 0
BBX 2 7 1 -3
BITMAP
C0
C0
C0
C0
C0
C0
C0
ENDCHAR
STARTCHAR char9596
ENCODING 9596
SWIDTH 437 0
DWIDTH 7 0
BBX 6 2 0 3
BITMAP
1C
FC
ENDCHAR
STARTCHAR char9597
ENCODING 9597
SWIDTH 437 0
DWIDTH 7 0
BBX 2 12 1 -3
BITMAP
40
40
40
40
40
40
C0
C0
C0
C0
C0
C0
ENDCHAR
STARTCHAR char9598
ENCODING 9598
SWIDTH 437 0
DWIDTH 7 0
BBX 6 2 0 3
BITMAP
E0
FC
ENDCHAR
STARTCHAR char9599
ENCODING 9599
SWIDTH 437 0
DWIDTH 7 0
BBX 2 12 1 -3
BITMAP
C0
C0
C0
C0
C0
C0
40
40
40
40
40
40
ENDCHAR
STARTCHAR char9601
ENCODING 9601
SWIDTH 437 0
DWIDTH 7 0
BBX 4 1 0 0
BITMAP
F0
ENDCHAR
STARTCHAR char9602
ENCODING 9602
SWIDTH 437 0
DWIDTH 7 0
BBX 4 2 0 0
BITMAP
F0
F0
ENDCHAR
STARTCHAR char9603
ENCODING 9603
SWIDTH 437 0
DWIDTH 7 0
BBX 4 3 0 0
BITMAP
F0
F0
F0
ENDCHAR
STARTCHAR char9604
ENCODING 9604
SWIDTH 437 0
DWIDTH 7 0
BBX 4 4 0 0
BITMAP
F0
F0
F0
F0
ENDCHAR
STARTCHAR char9605
ENCODING 9605
SWIDTH 437 0
DWIDTH 7 0
BBX 4 5 0 0
BITMAP
F0
F0
F0
F0
F0
ENDCHAR
STARTCHAR char9606
ENCODING 9606
SWIDTH 437 0
DWIDTH 7 0
BBX 4 6 0 0
BITMAP
F0
F0
F0
F0
F0
F0
ENDCHAR
STARTCHAR char9607
ENCODING 9607
SWIDTH 437 0
DWIDTH 7 0
BBX 4 7 0 0
BITMAP
F0
F0
F0
F0
F0
F0
F0
ENDCHAR
STARTCHAR char9608
ENCODING 9608
SWIDTH 437 0
DWIDTH 7 0
BBX 4 8 0 0
BITMAP
F0
F0
F0
F0
F0
F0
F0
F0
ENDCHAR
STARTCHAR char9609
ENCODING 9609
SWIDTH 437 0
DWIDTH 7 0
BBX 4 8 0 0
BITMAP
F0
F0
F0
F0
F0
F0
F0
F0
ENDCHAR
STARTCHAR char9610
ENCODING 9610
SWIDTH 437 0
DWIDTH 7 0
BBX 3 8 0 0
BITMAP
E0
E0
E0
E0
E0
E0
E0
E0
ENDCHAR
STARTCHAR char9611
ENCODING 9611
SWIDTH 437 0
DWIDTH 7 0
BBX 3 8 0 0
BITMAP
E0
E0
E0
E0
E0
E0
E0
E0
ENDCHAR
STARTCHAR char9612
ENCODING 9612
SWIDTH 437 0
DWIDTH 7 0
BBX 2 8 0 0
BITMAP
C0
C0
C0
C0
C0
C0
C0
C0
ENDCHAR
STARTCHAR char9613
ENCODING 9613
SWIDTH 437 0
DWIDTH 7 0
BBX 2 8 0 0
BITMAP
C0
C0
C0
C0
C0
C0
C0
C0
ENDCHAR
STARTCHAR char9614
ENCODING 9614
SWIDTH 437 0
DWIDTH 7 0
BBX 1 8 0 0
BITMAP
80
80
80
80
80
80
80
80
ENDCHAR
STARTCHAR char9615
ENCODING 9615
SWIDTH 437 0
DWIDTH 7 0
BBX 1 8 0 0
BITMAP
80
80
80
80
80
80
80
80
ENDCHAR
STARTCHAR char9616
ENCODING 9616
SWIDTH 437 0
DWIDTH 7 0
BBX 4 8 0 0
BITMAP
30
30
30
30
30
30
30
30
ENDCHAR
STARTCHAR char9617
ENCODING 9617
SWIDTH 437 0
DWIDTH 7 0
BBX 5 7 0 0
BITMAP
90
00
00
48
00
00
90
ENDCHAR
STARTCHAR char9618
ENCODING 9618
SWIDTH 437 0
DWIDTH 7 0
BBX 6 7 0 0
BITMAP
54
00
A8
00
54
00
A8
ENDCHAR
STARTCHAR char9619
ENCODING 9619
SWIDTH 437 0
DWIDTH 7 0
BBX 5 7 0 0
BITMAP
A8
50
A8
50
A8
50
A8
ENDCHAR
STARTCHAR char9620
ENCODING 9620
SWIDTH 437 0
DWIDTH 7 0
BBX 4 1 0 7
BITMAP
F0
ENDCHAR
STARTCHAR char9621
ENCODING 9621
SWIDTH 437 0
DWIDTH 7 0
BBX 4 8 0 0
BITMAP
10
10
10
10
10
10
10
10
ENDCHAR
STARTCHAR char9622
ENCODING 9622
SWIDTH 437 0
DWIDTH 7 0
BBX 2 4 0 0
BITMAP
C0
C0
C0
C0
ENDCHAR
STARTCHAR char9623
ENCODING 9623
SWIDTH 437 0
DWIDTH 7 0
BBX 4 4 0 0
BITMAP
30
30
30
30
ENDCHAR
STARTCHAR char9624
ENCODING 9624
SWIDTH 437 0
DWIDTH 7 0
BBX 2 4 0 4
BITMAP
C0
C0
C0
C0
ENDCHAR
STARTCHAR char9625
ENCODING 9625
SWIDTH 437 0
DWIDTH 7 0
BBX 4 8 0 0
BITMAP
C0
C0
C0
C0
F0
F0
F0
F0
ENDCHAR
STARTCHAR char9626
ENCODING 9626
SWIDTH 437 0
DWIDTH 7 0
BBX 4 8 0 0
BITMAP
C0
C0
C0
C0
30
30
30
30
ENDCHAR
STARTCHAR char9627
ENCODING 9627
SWIDTH 437 0
DWIDTH 7 0
BBX 4 8 0 0
BITMAP
F0
F0
F0
F0
F0
C0
C0
C0
ENDCHAR
STARTCHAR char9628
ENCODING 9628
SWIDTH 437 0
DWIDTH 7 0
BBX 4 8 0 0
BITMAP
F0
F0
F0
F0
30
30
30
30
ENDCHAR
STARTCHAR char9629
ENCODING 9629
SWIDTH 437 0
DWIDTH 7 0
BBX 2 4 2 4
BITMAP
C0
C0
C0
C0
ENDCHAR
STARTCHAR char9630
ENCODING 9630
SWIDTH 437 0
DWIDTH 7 0
BBX 4 8 0 0
BITMAP
30
30
30
30
C0
C0
C0
C0
ENDCHAR
STARTCHAR char9631
ENCODING 9631
SWIDTH 437 0
DWIDTH 7 0
BBX 4 8 0 0
BITMAP
30
30
30
30
F0
F0
F0
F0
ENDCHAR
STARTCHAR char9632
ENCODING 9632
SWIDTH 437 0
DWIDTH 7 0
BBX 4 4 0 1
BITMAP
F0
F0
F0
F0
ENDCHAR
STARTCHAR char9633
ENCODING 9633
SWIDTH 437 0
DWIDTH 7 0
BBX 4 4 0 1
BITMAP
F0
90
90
F0
ENDCHAR
STARTCHAR char9634
ENCODING 9634
SWIDTH 437 0
DWIDTH 7 0
BBX 4 4 0 1
BITMAP
60
90
90
60
ENDCHAR
STARTCHAR char9642
ENCODING 9642
SWIDTH 437 0
DWIDTH 7 0
BBX 2 2 1 2
BITMAP
C0
C0
ENDCHAR
STARTCHAR char9650
ENCODING 9650
SWIDTH 437 0
DWIDTH 7 0
BBX 5 3 0 1
BITMAP
20
50
F8
ENDCHAR
STARTCHAR char9651
ENCODING 9651
SWIDTH 437 0
DWIDTH 7 0
BBX 5 3 0 1
BITMAP
20
70
F8
ENDCHAR
STARTCHAR char9652
ENCODING 9652
SWIDTH 437 0
DWIDTH 7 0
BBX 3 2 1 1
BITMAP
40
E0
ENDCHAR
STARTCHAR char10003
ENCODING 10003
SWIDTH 437 0
DWIDTH 7 0
BBX 5 6 -1 0
BITMAP
08
08
10
90
60
20
ENDCHAR
STARTCHAR char10004
ENCODING 10004
SWIDTH 437 0
DWIDTH 7 0
BBX 5 6 -1 0
BITMAP
08
08
10
90
60
20
ENDCHAR
STARTCHAR char10030
ENCODING 10030
SWIDTH 437 0
DWIDTH 7 0
BBX 7 6 -1 0
BITMAP
10
10
FE
38
38
44
ENDCHAR
STARTCHAR char10178
ENCODING 10178
SWIDTH 437 0
DWIDTH 7 0
BBX 3 5 0 0
BITMAP
40
40
40
40
E0
ENDCHAR
STARTCHAR char10179
ENCODING 10179
SWIDTH 437 0
DWIDTH 7 0
BBX 4 5 0 0
BITMAP
70
80
A0
80
70
ENDCHAR
STARTCHAR char10180
ENCODING 10180
SWIDTH 437 0
DWIDTH 7 0
BBX 4 5 0 0
BITMAP
E0
10
50
10
E0
ENDCHAR
STARTCHAR char10198
ENCODING 10198
SWIDTH 437 0
DWIDTH 7 0
BBX 5 6 0 0
BITMAP
20
20
20
20
20
F8
ENDCHAR
STARTCHAR char10199
ENCODING 10199
SWIDTH 437 0
DWIDTH 7 0
BBX 5 6 0 0
BITMAP
F8
20
20
20
20
20
ENDCHAR
STARTCHAR char10204
ENCODING 10204
SWIDTH 437 0
DWIDTH 7 0
BBX 6 3 0 1
BITMAP
40
BC
40
ENDCHAR
STARTCHAR char10205
ENCODING 10205
SWIDTH 437 0
DWIDTH 7 0
BBX 6 3 0 1
BITMAP
80
FC
80
ENDCHAR
STARTCHAR char10206
ENCODING 10206
SWIDTH 437 0
DWIDTH 7 0
BBX 5 3 -1 1
BITMAP
08
F8
08
ENDCHAR
STARTCHAR char10240
ENCODING 10240
SWIDTH 437 0
DWIDTH 7 0
BBX 0 0 0 0
BITMAP
ENDCHAR
STARTCHAR char10241
ENCODING 10241
SWIDTH 437 0
DWIDTH 7 0
BBX 1 1 0 4
BITMAP
80
ENDCHAR
STARTCHAR char10242
ENCODING 10242
SWIDTH 437 0
DWIDTH 7 0
BBX 1 1 0 2
BITMAP
80
ENDCHAR
STARTCHAR char10243
ENCODING 10243
SWIDTH 437 0
DWIDTH 7 0
BBX 1 3 0 2
BITMAP
80
00
80
ENDCHAR
STARTCHAR char10244
ENCODING 10244
SWIDTH 437 0
DWIDTH 7 0
BBX 1 1 0 0
BITMAP
80
ENDCHAR
STARTCHAR char10245
ENCODING 10245
SWIDTH 437 0
DWIDTH 7 0
BBX 3 5 0 0
BITMAP
80
00
00
00
80
ENDCHAR
STARTCHAR char10246
ENCODING 10246
SWIDTH 437 0
DWIDTH 7 0
BBX 1 3 0 0
BITMAP
80
00
80
ENDCHAR
STARTCHAR char10247
ENCODING 10247
SWIDTH 437 0
DWIDTH 7 0
BBX 3 5 0 0
BITMAP
80
00
80
00
80
ENDCHAR
STARTCHAR char10248
ENCODING 10248
SWIDTH 437 0
DWIDTH 7 0
BBX 1 1 2 4
BITMAP
80
ENDCHAR
STARTCHAR char10249
ENCODING 10249
SWIDTH 437 0
DWIDTH 7 0
BBX 3 1 0 4
BITMAP
A0
ENDCHAR
STARTCHAR char10250
ENCODING 10250
SWIDTH 437 0
DWIDTH 7 0
BBX 3 3 0 2
BITMAP
20
00
80
ENDCHAR
STARTCHAR char10251
ENCODING 10251
SWIDTH 437 0
DWIDTH 7 0
BBX 3 3 0 2
BITMAP
A0
00
80
ENDCHAR
STARTCHAR char10252
ENCODING 10252
SWIDTH 437 0
DWIDTH 7 0
BBX 3 5 0 0
BITMAP
20
00
00
00
80
ENDCHAR
STARTCHAR char10253
ENCODING 10253
SWIDTH 437 0
DWIDTH 7 0
BBX 3 5 0 0
BITMAP
A0
00
00
00
80
ENDCHAR
STARTCHAR char10254
ENCODING 10254
SWIDTH 437 0
DWIDTH 7 0
BBX 3 5 0 0
BITMAP
20
00
80
00
80
ENDCHAR
STARTCHAR char10255
ENCODING 10255
SWIDTH 437 0
DWIDTH 7 0
BBX 3 5 0 0
BITMAP
A0
00
80
00
80
ENDCHAR
STARTCHAR char10256
ENCODING 10256
SWIDTH 437 0
DWIDTH 7 0
BBX 1 1 2 2
BITMAP
80
ENDCHAR
STARTCHAR char10257
ENCODING 10257
SWIDTH 437 0
DWIDTH 7 0
BBX 3 3 0 2
BITMAP
80
00
20
ENDCHAR
STARTCHAR char10258
ENCODING 10258
SWIDTH 437 0
DWIDTH 7 0
BBX 3 1 0 2
BITMAP
A0
ENDCHAR
STARTCHAR char10259
ENCODING 10259
SWIDTH 437 0
DWIDTH 7 0
BBX 3 3 0 2
BITMAP
80
00
A0
ENDCHAR
STARTCHAR char10260
ENCODING 10260
SWIDTH 437 0
DWIDTH 7 0
BBX 3 3 0 0
BITMAP
20
00
80
ENDCHAR
STARTCHAR char10261
ENCODING 10261
SWIDTH 437 0
DWIDTH 7 0
BBX 3 5 0 0
BITMAP
80
00
20
00
80
ENDCHAR
STARTCHAR char10262
ENCODING 10262
SWIDTH 437 0
DWIDTH 7 0
BBX 3 3 0 0
BITMAP
A0
00
80
ENDCHAR
STARTCHAR char10263
ENCODING 10263
SWIDTH 437 0
DWIDTH 7 0
BBX 3 5 0 0
BITMAP
80
00
A0
00
80
ENDCHAR
STARTCHAR char10264
ENCODING 10264
SWIDTH 437 0
DWIDTH 7 0
BBX 1 3 2 2
BITMAP
80
00
80
ENDCHAR
STARTCHAR char10265
ENCODING 10265
SWIDTH 437 0
DWIDTH 7 0
BBX 3 3 0 2
BITMAP
A0
00
20
ENDCHAR
STARTCHAR char10266
ENCODING 10266
SWIDTH 437 0
DWIDTH 7 0
BBX 3 3 0 2
BITMAP
20
00
A0
ENDCHAR
STARTCHAR char10267
ENCODING 10267
SWIDTH 437 0
DWIDTH 7 0
BBX 3 3 0 2
BITMAP
A0
00
A0
ENDCHAR
STARTCHAR char10268
ENCODING 10268
SWIDTH 437 0
DWIDTH 7 0
BBX 3 5 0 0
BITMAP
20
00
20
00
80
ENDCHAR
STARTCHAR char10269
ENCODING 10269
SWIDTH 437 0
DWIDTH 7 0
BBX 3 5 0 0
BITMAP
A0
00
20
00
80
ENDCHAR
STARTCHAR char10270
ENCODING 10270
SWIDTH 437 0
DWIDTH 7 0
BBX 3 5 0 0
BITMAP
20
00
A0
00
80
ENDCHAR
STARTCHAR char10271
ENCODING 10271
SWIDTH 437 0
DWIDTH 7 0
BBX 3 5 0 0
BITMAP
A0
00
A0
00
80
ENDCHAR
STARTCHAR char10272
ENCODING 10272
SWIDTH 437 0
DWIDTH 7 0
BBX 1 1 2 0
BITMAP
80
ENDCHAR
STARTCHAR char10273
ENCODING 10273
SWIDTH 437 0
DWIDTH 7 0
BBX 3 5 0 0
BITMAP
80
00
00
00
20
ENDCHAR
STARTCHAR char10274
ENCODING 10274
SWIDTH 437 0
DWIDTH 7 0
BBX 3 3 0 0
BITMAP
80
00
20
ENDCHAR
STARTCHAR char10275
ENCODING 10275
SWIDTH 437 0
DWIDTH 7 0
BBX 3 5 0 0
BITMAP
80
00
80
00
20
ENDCHAR
STARTCHAR char10276
ENCODING 10276
SWIDTH 437 0
DWIDTH 7 0
BBX 3 1 0 0
BITMAP
A0
ENDCHAR
STARTCHAR char10277
ENCODING 10277
SWIDTH 437 0
DWIDTH 7 0
BBX 3 5 0 0
BITMAP
80
00
00
00
A0
ENDCHAR
STARTCHAR char10278
ENCODING 10278
SWIDTH 437 0
DWIDTH 7 0
BBX 3 3 0 0
BITMAP
80
00
A0
ENDCHAR
STARTCHAR char10279
ENCODING 10279
SWIDTH 437 0
DWIDTH 7 0
BBX 3 5 0 0
BITMAP
80
00
80
00
A0
ENDCHAR
STARTCHAR char10280
ENCODING 10280
SWIDTH 437 0
DWIDTH 7 0
BBX 3 5 0 0
BITMAP
20
00
00
00
20
ENDCHAR
STARTCHAR char10281
ENCODING 10281
SWIDTH 437 0
DWIDTH 7 0
BBX 3 5 0 0
BITMAP
A0
00
00
00
20
ENDCHAR
STARTCHAR char10282
ENCODING 10282
SWIDTH 437 0
DWIDTH 7 0
BBX 3 5 0 0
BITMAP
20
00
80
00
20
ENDCHAR
STARTCHAR char10283
ENCODING 10283
SWIDTH 437 0
DWIDTH 7 0
BBX 3 5 0 0
BITMAP
A0
00
80
00
20
ENDCHAR
STARTCHAR char10284
ENCODING 10284
SWIDTH 437 0
DWIDTH 7 0
BBX 3 5 0 0
BITMAP
20
00
00
00
A0
ENDCHAR
STARTCHAR char10285
ENCODING 10285
SWIDTH 437 0
DWIDTH 7 0
BBX 3 5 0 0
BITMAP
A0
00
00
00
A0
ENDCHAR
STARTCHAR char10286
ENCODING 10286
SWIDTH 437 0
DWIDTH 7 0
BBX 3 5 0 0
BITMAP
20
00
80
00
A0
ENDCHAR
STARTCHAR char10287
ENCODING 10287
SWIDTH 437 0
DWIDTH 7 0
BBX 3 5 0 0
BITMAP
A0
00
80
00
A0
ENDCHAR
STARTCHAR char10288
ENCODING 10288
SWIDTH 437 0
DWIDTH 7 0
BBX 1 3 2 0
BITMAP
80
00
80
ENDCHAR
STARTCHAR char10289
ENCODING 10289
SWIDTH 437 0
DWIDTH 7 0
BBX 3 5 0 0
BITMAP
80
00
20
00
20
ENDCHAR
STARTCHAR char10290
ENCODING 10290
SWIDTH 437 0
DWIDTH 7 0
BBX 3 3 0 0
BITMAP
A0
00
20
ENDCHAR
STARTCHAR char10291
ENCODING 10291
SWIDTH 437 0
DWIDTH 7 0
BBX 3 5 0 0
BITMAP
80
00
A0
00
20
ENDCHAR
STARTCHAR char10292
ENCODING 10292
SWIDTH 437 0
DWIDTH 7 0
BBX 3 3 0 0
BITMAP
20
00
A0
ENDCHAR
STARTCHAR char10293
ENCODING 10293
SWIDTH 437 0
DWIDTH 7 0
BBX 3 5 0 0
BITMAP
80
00
20
00
A0
ENDCHAR
STARTCHAR char10294
ENCODING 10294
SWIDTH 437 0
DWIDTH 7 0
BBX 3 3 0 0
BITMAP
A0
00
A0
ENDCHAR
STARTCHAR char10295
ENCODING 10295
SWIDTH 437 0
DWIDTH 7 0
BBX 3 5 0 0
BITMAP
80
00
A0
00
A0
ENDCHAR
STARTCHAR char10296
ENCODING 10296
SWIDTH 437 0
DWIDTH 7 0
BBX 3 5 0 0
BITMAP
20
00
20
00
20
ENDCHAR
STARTCHAR char10297
ENCODING 10297
SWIDTH 437 0
DWIDTH 7 0
BBX 3 5 0 0
BITMAP
A0
00
20
00
20
ENDCHAR
STARTCHAR char10298
ENCODING 10298
SWIDTH 437 0
DWIDTH 7 0
BBX 3 5 0 0
BITMAP
20
00
A0
00
20
ENDCHAR
STARTCHAR char10299
ENCODING 10299
SWIDTH 437 0
DWIDTH 7 0
BBX 3 5 0 0
BITMAP
A0
00
A0
00
20
ENDCHAR
STARTCHAR char10300
ENCODING 10300
SWIDTH 437 0
DWIDTH 7 0
BBX 3 5 0 0
BITMAP
20
00
20
00
A0
ENDCHAR
STARTCHAR char10301
ENCODING 10301
SWIDTH 437 0
DWIDTH 7 0
BBX 3 5 0 0
BITMAP
A0
00
20
00
A0
ENDCHAR
STARTCHAR char10302
ENCODING 10302
SWIDTH 437 0
DWIDTH 7 0
BBX 3 5 0 0
BITMAP
20
00
A0
00
A0
ENDCHAR
STARTCHAR char10303
ENCODING 10303
SWIDTH 437 0
DWIDTH 7 0
BBX 3 5 0 0
BITMAP
A0
00
A0
00
A0
ENDCHAR
STARTCHAR char10304
ENCODING 10304
SWIDTH 437 0
DWIDTH 7 0
BBX 1 1 0 -2
BITMAP
80
ENDCHAR
STARTCHAR char10305
ENCODING 10305
SWIDTH 437 0
DWIDTH 7 0
BBX 3 7 0 -2
BITMAP
80
00
00
00
00
00
80
ENDCHAR
STARTCHAR char10306
ENCODING 10306
SWIDTH 437 0
DWIDTH 7 0
BBX 1 5 0 -2
BITMAP
80
00
00
00
80
ENDCHAR
STARTCHAR char10307
ENCODING 10307
SWIDTH 437 0
DWIDTH 7 0
BBX 3 7 0 -2
BITMAP
80
00
80
00
00
00
80
ENDCHAR
STARTCHAR char10308
ENCODING 10308
SWIDTH 437 0
DWIDTH 7 0
BBX 1 3 0 -2
BITMAP
80
00
80
ENDCHAR
STARTCHAR char10309
ENCODING 10309
SWIDTH 437 0
DWIDTH 7 0
BBX 3 7 0 -2
BITMAP
80
00
00
00
80
00
80
ENDCHAR
STARTCHAR char10310
ENCODING 10310
SWIDTH 437 0
DWIDTH 7 0
BBX 1 5 0 -2
BITMAP
80
00
80
00
80
ENDCHAR
STARTCHAR char10311
ENCODING 10311
SWIDTH 437 0
DWIDTH 7 0
BBX 3 7 0 -2
BITMAP
80
00
80
00
80
00
80
ENDCHAR
STARTCHAR char10312
ENCODING 10312
SWIDTH 437 0
DWIDTH 7 0
BBX 3 7 0 -2
BITMAP
20
00
00
00
00
00
80
ENDCHAR
STARTCHAR char10313
ENCODING 10313
SWIDTH 437 0
DWIDTH 7 0
BBX 3 7 0 -2
BITMAP
A0
00
00
00
00
00
80
ENDCHAR
STARTCHAR char10314
ENCODING 10314
SWIDTH 437 0
DWIDTH 7 0
BBX 3 7 0 -2
BITMAP
20
00
80
00
00
00
80
ENDCHAR
STARTCHAR char10315
ENCODING 10315
SWIDTH 437 0
DWIDTH 7 0
BBX 3 7 0 -2
BITMAP
A0
00
80
00
00
00
80
ENDCHAR
STARTCHAR char10316
ENCODING 10316
SWIDTH 437 0
DWIDTH 7 0
BBX 3 7 0 -2
BITMAP
20
00
00
00
80
00
80
ENDCHAR
STARTCHAR char10317
ENCODING 10317
SWIDTH 437 0
DWIDTH 7 0
BBX 3 7 0 -2
BITMAP
A0
00
00
00
80
00
80
ENDCHAR
STARTCHAR char10318
ENCODING 10318
SWIDTH 437 0
DWIDTH 7 0
BBX 3 7 0 -2
BITMAP
20
00
80
00
80
00
80
ENDCHAR
STARTCHAR char10319
ENCODING 10319
SWIDTH 437 0
DWIDTH 7 0
BBX 3 7 0 -2
BITMAP
A0
00
80
00
80
00
80
ENDCHAR
STARTCHAR char10320
ENCODING 10320
SWIDTH 437 0
DWIDTH 7 0
BBX 3 5 0 -2
BITMAP
20
00
00
00
80
ENDCHAR
STARTCHAR char10321
ENCODING 10321
SWIDTH 437 0
DWIDTH 7 0
BBX 3 7 0 -2
BITMAP
80
00
20
00
00
00
80
ENDCHAR
STARTCHAR char10322
ENCODING 10322
SWIDTH 437 0
DWIDTH 7 0
BBX 3 5 0 -2
BITMAP
A0
00
00
00
80
ENDCHAR
STARTCHAR char10323
ENCODING 10323
SWIDTH 437 0
DWIDTH 7 0
BBX 3 7 0 -2
BITMAP
80
00
A0
00
00
00
80
ENDCHAR
STARTCHAR char10324
ENCODING 10324
SWIDTH 437 0
DWIDTH 7 0
BBX 3 5 0 -2
BITMAP
20
00
80
00
80
ENDCHAR
STARTCHAR char10325
ENCODING 10325
SWIDTH 437 0
DWIDTH 7 0
BBX 3 7 0 -2
BITMAP
80
00
20
00
80
00
80
ENDCHAR
STARTCHAR char10326
ENCODING 10326
SWIDTH 437 0
DWIDTH 7 0
BBX 3 5 0 -2
BITMAP
A0
00
80
00
80
ENDCHAR
STARTCHAR char10327
ENCODING 10327
SWIDTH 437 0
DWIDTH 7 0
BBX 3 7 0 -2
BITMAP
80
00
A0
00
80
00
80
ENDCHAR
STARTCHAR char10328
ENCODING 10328
SWIDTH 437 0
DWIDTH 7 0
BBX 3 7 0 -2
BITMAP
20
00
20
00
00
00
80
ENDCHAR
STARTCHAR char10329
ENCODING 10329
SWIDTH 437 0
DWIDTH 7 0
BBX 3 7 0 -2
BITMAP
A0
00
20
00
00
00
80
ENDCHAR
STARTCHAR char10330
ENCODING 10330
SWIDTH 437 0
DWIDTH 7 0
BBX 3 7 0 -2
BITMAP
20
00
A0
00
00
00
80
ENDCHAR
STARTCHAR char10331
ENCODING 10331
SWIDTH 437 0
DWIDTH 7 0
BBX 3 7 0 -2
BITMAP
A0
00
A0
00
00
00
80
ENDCHAR
STARTCHAR char10332
ENCODING 10332
SWIDTH 437 0
DWIDTH 7 0
BBX 3 7 0 -2
BITMAP
20
00
20
00
80
00
80
ENDCHAR
STARTCHAR char10333
ENCODING 10333
SWIDTH 437 0
DWIDTH 7 0
BBX 3 7 0 -2
BITMAP
A0
00
20
00
80
00
80
ENDCHAR
STARTCHAR char10334
ENCODING 10334
SWIDTH 437 0
DWIDTH 7 0
BBX 3 7 0 -2
BITMAP
20
00
A0
00
80
00
80
ENDCHAR
STARTCHAR char10335
ENCODING 10335
SWIDTH 437 0
DWIDTH 7 0
BBX 3 7 0 -2
BITMAP
A0
00
A0
00
80
00
80
ENDCHAR
STARTCHAR char10336
ENCODING 10336
SWIDTH 437 0
DWIDTH 7 0
BBX 3 3 0 -2
BITMAP
20
00
80
ENDCHAR
STARTCHAR char10337
ENCODING 10337
SWIDTH 437 0
DWIDTH 7 0
BBX 3 7 0 -2
BITMAP
80
00
00
00
20
00
80
ENDCHAR
STARTCHAR char10338
ENCODING 10338
SWIDTH 437 0
DWIDTH 7 0
BBX 3 5 0 -2
BITMAP
80
00
20
00
80
ENDCHAR
STARTCHAR char10339
ENCODING 10339
SWIDTH 437 0
DWIDTH 7 0
BBX 3 7 0 -2
BITMAP
80
00
80
00
20
00
80
ENDCHAR
STARTCHAR char10340
ENCODING 10340
SWIDTH 437 0
DWIDTH 7 0
BBX 3 3 0 -2
BITMAP
A0
00
80
ENDCHAR
STARTCHAR char10341
ENCODING 10341
SWIDTH 437 0
DWIDTH 7 0
BBX 3 7 0 -2
BITMAP
80
00
00
00
A0
00
80
ENDCHAR
STARTCHAR char10342
ENCODING 10342
SWIDTH 437 0
DWIDTH 7 0
BBX 3 5 0 -2
BITMAP
80
00
A0
00
80
ENDCHAR
STARTCHAR char10343
ENCODING 10343
SWIDTH 437 0
DWIDTH 7 0
BBX 3 7 0 -2
BITMAP
80
00
80
00
A0
00
80
ENDCHAR
STARTCHAR char10344
ENCODING 10344
SWIDTH 437 0
DWIDTH 7 0
BBX 3 7 0 -2
BITMAP
20
00
00
00
20
00
80
ENDCHAR
STARTCHAR char10345
ENCODING 10345
SWIDTH 437 0
DWIDTH 7 0
BBX 3 7 0 -2
BITMAP
A0
00
00
00
20
00
80
ENDCHAR
STARTCHAR char10346
ENCODING 10346
SWIDTH 437 0
DWIDTH 7 0
BBX 3 7 0 -2
BITMAP
20
00
80
00
20
00
80
ENDCHAR
STARTCHAR char10347
ENCODING 10347
SWIDTH 437 0
DWIDTH 7 0
BBX 3 7 0 -2
BITMAP
A0
00
80
00
20
00
80
ENDCHAR
STARTCHAR char10348
ENCODING 10348
SWIDTH 437 0
DWIDTH 7 0
BBX 3 7 0 -2
BITMAP
20
00
00
00
A0
00
80
ENDCHAR
STARTCHAR char10349
ENCODING 10349
SWIDTH 437 0
DWIDTH 7 0
BBX 3 7 0 -2
BITMAP
A0
00
00
00
A0
00
80
ENDCHAR
STARTCHAR char10350
ENCODING 10350
SWIDTH 437 0
DWIDTH 7 0
BBX 3 7 0 -2
BITMAP
20
00
80
00
A0
00
80
ENDCHAR
STARTCHAR char10351
ENCODING 10351
SWIDTH 437 0
DWIDTH 7 0
BBX 3 7 0 -2
BITMAP
A0
00
80
00
A0
00
80
ENDCHAR
STARTCHAR char10352
ENCODING 10352
SWIDTH 437 0
DWIDTH 7 0
BBX 3 5 0 -2
BITMAP
20
00
20
00
80
ENDCHAR
STARTCHAR char10353
ENCODING 10353
SWIDTH 437 0
DWIDTH 7 0
BBX 3 7 0 -2
BITMAP
80
00
20
00
20
00
80
ENDCHAR
STARTCHAR char10354
ENCODING 10354
SWIDTH 437 0
DWIDTH 7 0
BBX 3 5 0 -2
BITMAP
A0
00
20
00
80
ENDCHAR
STARTCHAR char10355
ENCODING 10355
SWIDTH 437 0
DWIDTH 7 0
BBX 3 7 0 -2
BITMAP
80
00
A0
00
20
00
80
ENDCHAR
STARTCHAR char10356
ENCODING 10356
SWIDTH 437 0
DWIDTH 7 0
BBX 3 5 0 -2
BITMAP
20
00
A0
00
80
ENDCHAR
STARTCHAR char10357
ENCODING 10357
SWIDTH 437 0
DWIDTH 7 0
BBX 3 7 0 -2
BITMAP
80
00
20
00
A0
00
80
ENDCHAR
STARTCHAR char10358
ENCODING 10358
SWIDTH 437 0
DWIDTH 7 0
BBX 3 5 0 -2
BITMAP
A0
00
A0
00
80
ENDCHAR
STARTCHAR char10359
ENCODING 10359
SWIDTH 437 0
DWIDTH 7 0
BBX 3 7 0 -2
BITMAP
80
00
A0
00
A0
00
80
ENDCHAR
STARTCHAR char10360
ENCODING 10360
SWIDTH 437 0
DWIDTH 7 0
BBX 3 7 0 -2
BITMAP
20
00
20
00
20
00
80
ENDCHAR
STARTCHAR char10361
ENCODING 10361
SWIDTH 437 0
DWIDTH 7 0
BBX 3 7 0 -2
BITMAP
A0
00
20
00
20
00
80
ENDCHAR
STARTCHAR char10362
ENCODING 10362
SWIDTH 437 0
DWIDTH 7 0
BBX 3 7 0 -2
BITMAP
20
00
A0
00
20
00
80
ENDCHAR
STARTCHAR char10363
ENCODING 10363
SWIDTH 437 0
DWIDTH 7 0
BBX 3 7 0 -2
BITMAP
A0
00
A0
00
20
00
80
ENDCHAR
STARTCHAR char10364
ENCODING 10364
SWIDTH 437 0
DWIDTH 7 0
BBX 3 7 0 -2
BITMAP
20
00
20
00
A0
00
80
ENDCHAR
STARTCHAR char10365
ENCODING 10365
SWIDTH 437 0
DWIDTH 7 0
BBX 3 7 0 -2
BITMAP
A0
00
20
00
A0
00
80
ENDCHAR
STARTCHAR char10366
ENCODING 10366
SWIDTH 437 0
DWIDTH 7 0
BBX 3 7 0 -2
BITMAP
20
00
A0
00
A0
00
80
ENDCHAR
STARTCHAR char10367
ENCODING 10367
SWIDTH 437 0
DWIDTH 7 0
BBX 3 7 0 -2
BITMAP
A0
00
A0
00
A0
00
80
ENDCHAR
STARTCHAR char10368
ENCODING 10368
SWIDTH 437 0
DWIDTH 7 0
BBX 1 1 2 -2
BITMAP
80
ENDCHAR
STARTCHAR char10369
ENCODING 10369
SWIDTH 437 0
DWIDTH 7 0
BBX 3 7 0 -2
BITMAP
80
00
00
00
00
00
20
ENDCHAR
STARTCHAR char10370
ENCODING 10370
SWIDTH 437 0
DWIDTH 7 0
BBX 3 5 0 -2
BITMAP
80
00
00
00
20
ENDCHAR
STARTCHAR char10371
ENCODING 10371
SWIDTH 437 0
DWIDTH 7 0
BBX 3 7 0 -2
BITMAP
80
00
80
00
00
00
20
ENDCHAR
STARTCHAR char10372
ENCODING 10372
SWIDTH 437 0
DWIDTH 7 0
BBX 3 3 0 -2
BITMAP
80
00
20
ENDCHAR
STARTCHAR char10373
ENCODING 10373
SWIDTH 437 0
DWIDTH 7 0
BBX 3 7 0 -2
BITMAP
80
00
00
00
80
00
20
ENDCHAR
STARTCHAR char10374
ENCODING 10374
SWIDTH 437 0
DWIDTH 7 0
BBX 3 5 0 -2
BITMAP
80
00
80
00
20
ENDCHAR
STARTCHAR char10375
ENCODING 10375
SWIDTH 437 0
DWIDTH 7 0
BBX 3 7 0 -2
BITMAP
80
00
80
00
80
00
20
ENDCHAR
STARTCHAR char10376
ENCODING 10376
SWIDTH 437 0
DWIDTH 7 0
BBX 3 7 0 -2
BITMAP
20
00
00
00
00
00
20
ENDCHAR
STARTCHAR char10377
ENCODING 10377
SWIDTH 437 0
DWIDTH 7 0
BBX 3 7 0 -2
BITMAP
A0
00
00
00
00
00
20
ENDCHAR
STARTCHAR char10378
ENCODING 10378
SWIDTH 437 0
DWIDTH 7 0
BBX 3 7 0 -2
BITMAP
20
00
80
00
00
00
20
ENDCHAR
STARTCHAR char10379
ENCODING 10379
SWIDTH 437 0
DWIDTH 7 0
BBX 3 7 0 -2
BITMAP
A0
00
80
00
00
00
20
ENDCHAR
STARTCHAR char10380
ENCODING 10380
SWIDTH 437 0
DWIDTH 7 0
BBX 3 7 0 -2
BITMAP
20
00
00
00
80
00
20
ENDCHAR
STARTCHAR char10381
ENCODING 10381
SWIDTH 437 0
DWIDTH 7 0
BBX 3 7 0 -2
BITMAP
A0
00
00
00
80
00
20
ENDCHAR
STARTCHAR char10382
ENCODING 10382
SWIDTH 437 0
DWIDTH 7 0
BBX 3 7 0 -2
BITMAP
20
00
80
00
80
00
20
ENDCHAR
STARTCHAR char10383
ENCODING 10383
SWIDTH 437 0
DWIDTH 7 0
BBX 3 7 0 -2
BITMAP
A0
00
80
00
80
00
20
ENDCHAR
STARTCHAR char10384
ENCODING 10384
SWIDTH 437 0
DWIDTH 7 0
BBX 1 5 2 -2
BITMAP
80
00
00
00
80
ENDCHAR
STARTCHAR char10385
ENCODING 10385
SWIDTH 437 0
DWIDTH 7 0
BBX 3 7 0 -2
BITMAP
80
00
20
00
00
00
20
ENDCHAR
STARTCHAR char10386
ENCODING 10386
SWIDTH 437 0
DWIDTH 7 0
BBX 3 5 0 -2
BITMAP
A0
00
00
00
20
ENDCHAR
STARTCHAR char10387
ENCODING 10387
SWIDTH 437 0
DWIDTH 7 0
BBX 3 7 0 -2
BITMAP
80
00
A0
00
00
00
20
ENDCHAR
STARTCHAR char10388
ENCODING 10388
SWIDTH 437 0
DWIDTH 7 0
BBX 3 5 0 -2
BITMAP
20
00
80
00
20
ENDCHAR
STARTCHAR char10389
ENCODING 10389
SWIDTH 437 0
DWIDTH 7 0
BBX 3 7 0 -2
BITMAP
80
00
20
00
80
00
20
ENDCHAR
STARTCHAR char10390
ENCODING 10390
SWIDTH 437 0
DWIDTH 7 0
BBX 3 5 0 -2
BITMAP
A0
00
80
00
20
ENDCHAR
STARTCHAR char10391
ENCODING 10391
SWIDTH 437 0
DWIDTH 7 0
BBX 3 7 0 -2
BITMAP
80
00
A0
00
80
00
20
ENDCHAR
STARTCHAR char10392
ENCODING 10392
SWIDTH 437 0
DWIDTH 7 0
BBX 3 7 0 -2
BITMAP
20
00
20
00
00
00
20
ENDCHAR
STARTCHAR char10393
ENCODING 10393
SWIDTH 437 0
DWIDTH 7 0
BBX 3 7 0 -2
BITMAP
A0
00
20
00
00
00
20
ENDCHAR
STARTCHAR char10394
ENCODING 10394
SWIDTH 437 0
DWIDTH 7 0
BBX 3 7 0 -2
BITMAP
20
00
A0
00
00
00
20
ENDCHAR
STARTCHAR char10395
ENCODING 10395
SWIDTH 437 0
DWIDTH 7 0
BBX 3 7 0 -2
BITMAP
A0
00
A0
00
00
00
20
ENDCHAR
STARTCHAR char10396
ENCODING 10396
SWIDTH 437 0
DWIDTH 7 0
BBX 3 7 0 -2
BITMAP
20
00
20
00
80
00
20
ENDCHAR
STARTCHAR char10397
ENCODING 10397
SWIDTH 437 0
DWIDTH 7 0
BBX 3 7 0 -2
BITMAP
A0
00
20
00
80
00
20
ENDCHAR
STARTCHAR char10398
ENCODING 10398
SWIDTH 437 0
DWIDTH 7 0
BBX 3 7 0 -2
BITMAP
20
00
A0
00
80
00
20
ENDCHAR
STARTCHAR char10399
ENCODING 10399
SWIDTH 437 0
DWIDTH 7 0
BBX 3 7 0 -2
BITMAP
A0
00
A0
00
80
00
20
ENDCHAR
STARTCHAR char10400
ENCODING 10400
SWIDTH 437 0
DWIDTH 7 0
BBX 1 3 2 -2
BITMAP
80
00
80
ENDCHAR
STARTCHAR char10401
ENCODING 10401
SWIDTH 437 0
DWIDTH 7 0
BBX 3 7 0 -2
BITMAP
80
00
00
00
20
00
20
ENDCHAR
STARTCHAR char10402
ENCODING 10402
SWIDTH 437 0
DWIDTH 7 0
BBX 3 5 0 -2
BITMAP
80
00
20
00
20
ENDCHAR
STARTCHAR char10403
ENCODING 10403
SWIDTH 437 0
DWIDTH 7 0
BBX 3 7 0 -2
BITMAP
80
00
80
00
20
00
20
ENDCHAR
STARTCHAR char10404
ENCODING 10404
SWIDTH 437 0
DWIDTH 7 0
BBX 3 3 0 -2
BITMAP
A0
00
20
ENDCHAR
STARTCHAR char10405
ENCODING 10405
SWIDTH 437 0
DWIDTH 7 0
BBX 3 7 0 -2
BITMAP
80
00
00
00
A0
00
20
ENDCHAR
STARTCHAR char10406
ENCODING 10406
SWIDTH 437 0
DWIDTH 7 0
BBX 3 5 0 -2
BITMAP
80
00
A0
00
20
ENDCHAR
STARTCHAR char10407
ENCODING 10407
SWIDTH 437 0
DWIDTH 7 0
BBX 3 7 0 -2
BITMAP
80
00
80
00
A0
00
20
ENDCHAR
STARTCHAR char10408
ENCODING 10408
SWIDTH 437 0
DWIDTH 7 0
BBX 3 7 0 -2
BITMAP
20
00
00
00
20
00
20
ENDCHAR
STARTCHAR char10409
ENCODING 10409
SWIDTH 437 0
DWIDTH 7 0
BBX 3 7 0 -2
BITMAP
A0
00
00
00
20
00
20
ENDCHAR
STARTCHAR char10410
ENCODING 10410
SWIDTH 437 0
DWIDTH 7 0
BBX 3 7 0 -2
BITMAP
20
00
80
00
20
00
20
ENDCHAR
STARTCHAR char10411
ENCODING 10411
SWIDTH 437 0
DWIDTH 7 0
BBX 3 7 0 -2
BITMAP
A0
00
80
00
20
00
20
ENDCHAR
STARTCHAR char10412
ENCODING 10412
SWIDTH 437 0
DWIDTH 7 0
BBX 3 7 0 -2
BITMAP
20
00
00
00
A0
00
20
ENDCHAR
STARTCHAR char10413
ENCODING 10413
SWIDTH 437 0
DWIDTH 7 0
BBX 3 7 0 -2
BITMAP
A0
00
00
00
A0
00
20
ENDCHAR
STARTCHAR char10414
ENCODING 10414
SWIDTH 437 0
DWIDTH 7 0
BBX 3 7 0 -2
BITMAP
20
00
80
00
A0
00
20
ENDCHAR
STARTCHAR char10415
ENCODING 10415
SWIDTH 437 0
DWIDTH 7 0
BBX 3 7 0 -2
BITMAP
A0
00
80
00
A0
00
20
ENDCHAR
STARTCHAR char10416
ENCODING 10416
SWIDTH 437 0
DWIDTH 7 0
BBX 1 5 2 -2
BITMAP
80
00
80
00
80
ENDCHAR
STARTCHAR char10417
ENCODING 10417
SWIDTH 437 0
DWIDTH 7 0
BBX 3 7 0 -2
BITMAP
80
00
20
00
20
00
20
ENDCHAR
STARTCHAR char10418
ENCODING 10418
SWIDTH 437 0
DWIDTH 7 0
BBX 3 5 0 -2
BITMAP
A0
00
20
00
20
ENDCHAR
STARTCHAR char10419
ENCODING 10419
SWIDTH 437 0
DWIDTH 7 0
BBX 3 7 0 -2
BITMAP
80
00
A0
00
20
00
20
ENDCHAR
STARTCHAR char10420
ENCODING 10420
SWIDTH 437 0
DWIDTH 7 0
BBX 3 5 0 -2
BITMAP
20
00
A0
00
20
ENDCHAR
STARTCHAR char10421
ENCODING 10421
SWIDTH 437 0
DWIDTH 7 0
BBX 3 7 0 -2
BITMAP
80
00
20
00
A0
00
20
ENDCHAR
STARTCHAR char10422
ENCODING 10422
SWIDTH 437 0
DWIDTH 7 0
BBX 3 5 0 -2
BITMAP
A0
00
A0
00
20
ENDCHAR
STARTCHAR char10423
ENCODING 10423
SWIDTH 437 0
DWIDTH 7 0
BBX 3 7 0 -2
BITMAP
80
00
A0
00
A0
00
20
ENDCHAR
STARTCHAR char10424
ENCODING 10424
SWIDTH 437 0
DWIDTH 7 0
BBX 3 7 0 -2
BITMAP
20
00
20
00
20
00
20
ENDCHAR
STARTCHAR char10425
ENCODING 10425
SWIDTH 437 0
DWIDTH 7 0
BBX 3 7 0 -2
BITMAP
A0
00
20
00
20
00
20
ENDCHAR
STARTCHAR char10426
ENCODING 10426
SWIDTH 437 0
DWIDTH 7 0
BBX 3 7 0 -2
BITMAP
20
00
A0
00
20
00
20
ENDCHAR
STARTCHAR char10427
ENCODING 10427
SWIDTH 437 0
DWIDTH 7 0
BBX 3 7 0 -2
BITMAP
A0
00
A0
00
20
00
20
ENDCHAR
STARTCHAR char10428
ENCODING 10428
SWIDTH 437 0
DWIDTH 7 0
BBX 3 7 0 -2
BITMAP
20
00
20
00
A0
00
20
ENDCHAR
STARTCHAR char10429
ENCODING 10429
SWIDTH 437 0
DWIDTH 7 0
BBX 3 7 0 -2
BITMAP
A0
00
20
00
A0
00
20
ENDCHAR
STARTCHAR char10430
ENCODING 10430
SWIDTH 437 0
DWIDTH 7 0
BBX 3 7 0 -2
BITMAP
20
00
A0
00
A0
00
20
ENDCHAR
STARTCHAR char10431
ENCODING 10431
SWIDTH 437 0
DWIDTH 7 0
BBX 3 7 0 -2
BITMAP
A0
00
A0
00
A0
00
20
ENDCHAR
STARTCHAR char10432
ENCODING 10432
SWIDTH 437 0
DWIDTH 7 0
BBX 3 1 0 -2
BITMAP
A0
ENDCHAR
STARTCHAR char10433
ENCODING 10433
SWIDTH 437 0
DWIDTH 7 0
BBX 3 7 0 -2
BITMAP
80
00
00
00
00
00
A0
ENDCHAR
STARTCHAR char10434
ENCODING 10434
SWIDTH 437 0
DWIDTH 7 0
BBX 3 5 0 -2
BITMAP
80
00
00
00
A0
ENDCHAR
STARTCHAR char10435
ENCODING 10435
SWIDTH 437 0
DWIDTH 7 0
BBX 3 7 0 -2
BITMAP
80
00
80
00
00
00
A0
ENDCHAR
STARTCHAR char10436
ENCODING 10436
SWIDTH 437 0
DWIDTH 7 0
BBX 3 3 0 -2
BITMAP
80
00
A0
ENDCHAR
STARTCHAR char10437
ENCODING 10437
SWIDTH 437 0
DWIDTH 7 0
BBX 3 7 0 -2
BITMAP
80
00
00
00
80
00
A0
ENDCHAR
STARTCHAR char10438
ENCODING 10438
SWIDTH 437 0
DWIDTH 7 0
BBX 3 5 0 -2
BITMAP
80
00
80
00
A0
ENDCHAR
STARTCHAR char10439
ENCODING 10439
SWIDTH 437 0
DWIDTH 7 0
BBX 3 7 0 -2
BITMAP
80
00
80
00
80
00
A0
ENDCHAR
STARTCHAR char10440
ENCODING 10440
SWIDTH 437 0
DWIDTH 7 0
BBX 3 7 0 -2
BITMAP
20
00
00
00
00
00
A0
ENDCHAR
STARTCHAR char10441
ENCODING 10441
SWIDTH 437 0
DWIDTH 7 0
BBX 3 7 0 -2
BITMAP
A0
00
00
00
00
00
A0
ENDCHAR
STARTCHAR char10442
ENCODING 10442
SWIDTH 437 0
DWIDTH 7 0
BBX 3 7 0 -2
BITMAP
20
00
80
00
00
00
A0
ENDCHAR
STARTCHAR char10443
ENCODING 10443
SWIDTH 437 0
DWIDTH 7 0
BBX 3 7 0 -2
BITMAP
A0
00
80
00
00
00
A0
ENDCHAR
STARTCHAR char10444
ENCODING 10444
SWIDTH 437 0
DWIDTH 7 0
BBX 3 7 0 -2
BITMAP
20
00
00
00
80
00
A0
ENDCHAR
STARTCHAR char10445
ENCODING 10445
SWIDTH 437 0
DWIDTH 7 0
BBX 3 7 0 -2
BITMAP
A0
00
00
00
80
00
A0
ENDCHAR
STARTCHAR char10446
ENCODING 10446
SWIDTH 437 0
DWIDTH 7 0
BBX 3 7 0 -2
BITMAP
20
00
80
00
80
00
A0
ENDCHAR
STARTCHAR char10447
ENCODING 10447
SWIDTH 437 0
DWIDTH 7 0
BBX 3 7 0 -2
BITMAP
A0
00
80
00
80
00
A0
ENDCHAR
STARTCHAR char10448
ENCODING 10448
SWIDTH 437 0
DWIDTH 7 0
BBX 3 5 0 -2
BITMAP
20
00
00
00
A0
ENDCHAR
STARTCHAR char10449
ENCODING 10449
SWIDTH 437 0
DWIDTH 7 0
BBX 3 7 0 -2
BITMAP
80
00
20
00
00
00
A0
ENDCHAR
STARTCHAR char10450
ENCODING 10450
SWIDTH 437 0
DWIDTH 7 0
BBX 3 5 0 -2
BITMAP
A0
00
00
00
A0
ENDCHAR
STARTCHAR char10451
ENCODING 10451
SWIDTH 437 0
DWIDTH 7 0
BBX 3 7 0 -2
BITMAP
80
00
A0
00
00
00
A0
ENDCHAR
STARTCHAR char10452
ENCODING 10452
SWIDTH 437 0
DWIDTH 7 0
BBX 3 5 0 -2
BITMAP
20
00
80
00
A0
ENDCHAR
STARTCHAR char10453
ENCODING 10453
SWIDTH 437 0
DWIDTH 7 0
BBX 3 7 0 -2
BITMAP
80
00
20
00
80
00
A0
ENDCHAR
STARTCHAR char10454
ENCODING 10454
SWIDTH 437 0
DWIDTH 7 0
BBX 3 5 0 -2
BITMAP
A0
00
80
00
A0
ENDCHAR
STARTCHAR char10455
ENCODING 10455
SWIDTH 437 0
DWIDTH 7 0
BBX 3 7 0 -2
BITMAP
80
00
A0
00
80
00
A0
ENDCHAR
STARTCHAR char10456
ENCODING 10456
SWIDTH 437 0
DWIDTH 7 0
BBX 3 7 0 -2
BITMAP
20
00
20
00
00
00
A0
ENDCHAR
STARTCHAR char10457
ENCODING 10457
SWIDTH 437 0
DWIDTH 7 0
BBX 3 7 0 -2
BITMAP
A0
00
20
00
00
00
A0
ENDCHAR
STARTCHAR char10458
ENCODING 10458
SWIDTH 437 0
DWIDTH 7 0
BBX 3 7 0 -2
BITMAP
20
00
A0
00
00
00
A0
ENDCHAR
STARTCHAR char10459
ENCODING 10459
SWIDTH 437 0
DWIDTH 7 0
BBX 3 7 0 -2
BITMAP
A0
00
A0
00
00
00
A0
ENDCHAR
STARTCHAR char10460
ENCODING 10460
SWIDTH 437 0
DWIDTH 7 0
BBX 3 7 0 -2
BITMAP
20
00
20
00
80
00
A0
ENDCHAR
STARTCHAR char10461
ENCODING 10461
SWIDTH 437 0
DWIDTH 7 0
BBX 3 7 0 -2
BITMAP
A0
00
20
00
80
00
A0
ENDCHAR
STARTCHAR char10462
ENCODING 10462
SWIDTH 437 0
DWIDTH 7 0
BBX 3 7 0 -2
BITMAP
20
00
A0
00
80
00
A0
ENDCHAR
STARTCHAR char10463
ENCODING 10463
SWIDTH 437 0
DWIDTH 7 0
BBX 3 7 0 -2
BITMAP
A0
00
A0
00
80
00
A0
ENDCHAR
STARTCHAR char10464
ENCODING 10464
SWIDTH 437 0
DWIDTH 7 0
BBX 3 3 0 -2
BITMAP
20
00
A0
ENDCHAR
STARTCHAR char10465
ENCODING 10465
SWIDTH 437 0
DWIDTH 7 0
BBX 3 7 0 -2
BITMAP
80
00
00
00
20
00
A0
ENDCHAR
STARTCHAR char10466
ENCODING 10466
SWIDTH 437 0
DWIDTH 7 0
BBX 3 5 0 -2
BITMAP
80
00
20
00
A0
ENDCHAR
STARTCHAR char10467
ENCODING 10467
SWIDTH 437 0
DWIDTH 7 0
BBX 3 7 0 -2
BITMAP
80
00
80
00
20
00
A0
ENDCHAR
STARTCHAR char10468
ENCODING 10468
SWIDTH 437 0
DWIDTH 7 0
BBX 3 3 0 -2
BITMAP
A0
00
A0
ENDCHAR
STARTCHAR char10469
ENCODING 10469
SWIDTH 437 0
DWIDTH 7 0
BBX 3 7 0 -2
BITMAP
80
00
00
00
A0
00
A0
ENDCHAR
STARTCHAR char10470
ENCODING 10470
SWIDTH 437 0
DWIDTH 7 0
BBX 3 5 0 -2
BITMAP
80
00
A0
00
A0
ENDCHAR
STARTCHAR char10471
ENCODING 10471
SWIDTH 437 0
DWIDTH 7 0
BBX 3 7 0 -2
BITMAP
80
00
80
00
A0
00
A0
ENDCHAR
STARTCHAR char10472
ENCODING 10472
SWIDTH 437 0
DWIDTH 7 0
BBX 3 7 0 -2
BITMAP
20
00
00
00
20
00
A0
ENDCHAR
STARTCHAR char10473
ENCODING 10473
SWIDTH 437 0
DWIDTH 7 0
BBX 3 7 0 -2
BITMAP
A0
00
00
00
20
00
A0
ENDCHAR
STARTCHAR char10474
ENCODING 10474
SWIDTH 437 0
DWIDTH 7 0
BBX 3 7 0 -2
BITMAP
20
00
80
00
20
00
A0
ENDCHAR
STARTCHAR char10475
ENCODING 10475
SWIDTH 437 0
DWIDTH 7 0
BBX 3 7 0 -2
BITMAP
A0
00
80
00
20
00
A0
ENDCHAR
STARTCHAR char10476
ENCODING 10476
SWIDTH 437 0
DWIDTH 7 0
BBX 3 7 0 -2
BITMAP
20
00
00
00
A0
00
A0
ENDCHAR
STARTCHAR char10477
ENCODING 10477
SWIDTH 437 0
DWIDTH 7 0
BBX 3 7 0 -2
BITMAP
A0
00
00
00
A0
00
A0
ENDCHAR
STARTCHAR char10478
ENCODING 10478
SWIDTH 437 0
DWIDTH 7 0
BBX 3 7 0 -2
BITMAP
20
00
80
00
A0
00
A0
ENDCHAR
STARTCHAR char10479
ENCODING 10479
SWIDTH 437 0
DWIDTH 7 0
BBX 3 7 0 -2
BITMAP
A0
00
80
00
A0
00
A0
ENDCHAR
STARTCHAR char10480
ENCODING 10480
SWIDTH 437 0
DWIDTH 7 0
BBX 3 5 0 -2
BITMAP
20
00
20
00
A0
ENDCHAR
STARTCHAR char10481
ENCODING 10481
SWIDTH 437 0
DWIDTH 7 0
BBX 3 7 0 -2
BITMAP
80
00
20
00
20
00
A0
ENDCHAR
STARTCHAR char10482
ENCODING 10482
SWIDTH 437 0
DWIDTH 7 0
BBX 3 5 0 -2
BITMAP
A0
00
20
00
A0
ENDCHAR
STARTCHAR char10483
ENCODING 10483
SWIDTH 437 0
DWIDTH 7 0
BBX 3 7 0 -2
BITMAP
80
00
A0
00
20
00
A0
ENDCHAR
STARTCHAR char10484
ENCODING 10484
SWIDTH 437 0
DWIDTH 7 0
BBX 3 5 0 -2
BITMAP
20
00
A0
00
A0
ENDCHAR
STARTCHAR char10485
ENCODING 10485
SWIDTH 437 0
DWIDTH 7 0
BBX 3 7 0 -2
BITMAP
80
00
20
00
A0
00
A0
ENDCHAR
STARTCHAR char10486
ENCODING 10486
SWIDTH 437 0
DWIDTH 7 0
BBX 3 5 0 -2
BITMAP
A0
00
A0
00
A0
ENDCHAR
STARTCHAR char10487
ENCODING 10487
SWIDTH 437 0
DWIDTH 7 0
BBX 3 7 0 -2
BITMAP
80
00
A0
00
A0
00
A0
ENDCHAR
STARTCHAR char10488
ENCODING 10488
SWIDTH 437 0
DWIDTH 7 0
BBX 3 7 0 -2
BITMAP
20
00
20
00
20
00
A0
ENDCHAR
STARTCHAR char10489
ENCODING 10489
SWIDTH 437 0
DWIDTH 7 0
BBX 3 7 0 -2
BITMAP
A0
00
20
00
20
00
A0
ENDCHAR
STARTCHAR char10490
ENCODING 10490
SWIDTH 437 0
DWIDTH 7 0
BBX 3 7 0 -2
BITMAP
20
00
A0
00
20
00
A0
ENDCHAR
STARTCHAR char10491
ENCODING 10491
SWIDTH 437 0
DWIDTH 7 0
BBX 3 7 0 -2
BITMAP
A0
00
A0
00
20
00
A0
ENDCHAR
STARTCHAR char10492
ENCODING 10492
SWIDTH 437 0
DWIDTH 7 0
BBX 3 7 0 -2
BITMAP
20
00
20
00
A0
00
A0
ENDCHAR
STARTCHAR char10493
ENCODING 10493
SWIDTH 437 0
DWIDTH 7 0
BBX 3 7 0 -2
BITMAP
A0
00
20
00
A0
00
A0
ENDCHAR
STARTCHAR char10494
ENCODING 10494
SWIDTH 437 0
DWIDTH 7 0
BBX 3 7 0 -2
BITMAP
20
00
A0
00
A0
00
A0
ENDCHAR
STARTCHAR char10495
ENCODING 10495
SWIDTH 437 0
DWIDTH 7 0
BBX 3 7 0 -2
BITMAP
A0
00
A0
00
A0
00
A0
ENDCHAR
STARTCHAR char10521
ENCODING 10521
SWIDTH 437 0
DWIDTH 7 0
BBX 5 5 -1 0
BITMAP
08
10
E0
10
08
ENDCHAR
STARTCHAR char10522
ENCODING 10522
SWIDTH 437 0
DWIDTH 7 0
BBX 6 5 -1 0
BITMAP
80
40
3C
40
80
ENDCHAR
STARTCHAR char10523
ENCODING 10523
SWIDTH 437 0
DWIDTH 7 0
BBX 7 5 -1 0
BITMAP
0A
14
E8
14
0A
ENDCHAR
STARTCHAR char10524
ENCODING 10524
SWIDTH 437 0
DWIDTH 7 0
BBX 7 5 -1 0
BITMAP
A0
50
2E
50
A0
ENDCHAR
STARTCHAR char11104
ENCODING 11104
SWIDTH 437 0
DWIDTH 7 0
BBX 4 8 0 0
BITMAP
80
A0
F0
A0
A0
C0
80
80
ENDCHAR
STARTCHAR char11105
ENCODING 11105
SWIDTH 437 0
DWIDTH 7 0
BBX 4 8 0 0
BITMAP
80
80
80
C0
60
50
50
50
ENDCHAR
STARTCHAR char11106
ENCODING 11106
SWIDTH 437 0
DWIDTH 7 0
BBX 5 8 -1 0
BITMAP
20
40
70
50
58
90
10
08
ENDCHAR
STARTCHAR char11108
ENCODING 11108
SWIDTH 437 0
DWIDTH 7 0
BBX 4 7 0 0
BITMAP
60
90
90
F0
D0
D0
F0
ENDCHAR
STARTCHAR char11136
ENCODING 11136
SWIDTH 437 0
DWIDTH 7 0
BBX 5 9 0 0
BITMAP
80
C0
E0
F0
F8
F0
E0
C0
80
ENDCHAR
STARTCHAR char11137
ENCODING 11137
SWIDTH 437 0
DWIDTH 7 0
BBX 5 9 0 0
BITMAP
80
40
20
10
08
10
20
40
80
ENDCHAR
STARTCHAR char11138
ENCODING 11138
SWIDTH 437 0
DWIDTH 7 0
BBX 5 9 0 0
BITMAP
08
18
38
78
F8
78
38
18
08
ENDCHAR
STARTCHAR char11139
ENCODING 11139
SWIDTH 437 0
DWIDTH 7 0
BBX 5 9 0 0
BITMAP
08
10
20
40
80
40
20
10
08
ENDCHAR
STARTCHAR char57504
ENCODING 57504
SWIDTH 437 0
DWIDTH 7 0
BBX 4 8 0 0
BITMAP
80
A0
F0
A0
A0
C0
80
80
ENDCHAR
STARTCHAR char57505
ENCODING 57505
SWIDTH 437 0
DWIDTH 7 0
BBX 4 8 0 0
BITMAP
80
80
80
C0
60
50
50
50
ENDCHAR
STARTCHAR char57506
ENCODING 57506
SWIDTH 437 0
DWIDTH 7 0
BBX 4 7 0 0
BITMAP
60
90
90
F0
D0
D0
F0
ENDCHAR
STARTCHAR char57520
ENCODING 57520
SWIDTH 437 0
DWIDTH 7 0
BBX 5 10 0 -1
BITMAP
80
C0
E0
F0
F8
F8
F0
E0
C0
80
ENDCHAR
STARTCHAR char57521
ENCODING 57521
SWIDTH 437 0
DWIDTH 7 0
BBX 5 10 0 -1
BITMAP
80
40
20
10
08
08
10
20
40
80
ENDCHAR
STARTCHAR char57522
ENCODING 57522
SWIDTH 437 0
DWIDTH 7 0
BBX 5 10 0 -1
BITMAP
08
18
38
78
F8
F8
78
38
18
08
ENDCHAR
STARTCHAR char57523
ENCODING 57523
SWIDTH 437 0
DWIDTH 7 0
BBX 5 10 0 -1
BITMAP
08
10
20
40
80
80
40
20
10
08
ENDCHAR
STARTCHAR haskell
ENCODING 57536
SWIDTH 437 0
DWIDTH 7 0
BBX 7 5 -1 0
BITMAP
A0
50
28
54
A2
ENDCHAR
STARTCHAR char57537
ENCODING 57537
SWIDTH 437 0
DWIDTH 7 0
BBX 3 5 2 0
BITMAP
80
40
20
40
80
ENDCHAR
ENDFONT
